<svg width="357" height="312" viewBox="0 0 357 312" fill="none" xmlns="http://www.w3.org/2000/svg">
<path d="M46.4601 263.74L61.1801 297.26L36.9301 309.26C35.958 309.736 34.8485 309.852 33.7991 309.586C32.7498 309.321 31.8288 308.691 31.2001 307.81C29.0349 304.764 25.8164 302.63 22.1678 301.821C18.5191 301.011 14.7001 301.585 11.4501 303.43L1.62012 309C1.86704 303.511 3.26291 298.135 5.7175 293.219C8.17209 288.302 11.6308 283.956 15.8701 280.46L17.7201 278.93C18.6464 278.159 19.6521 277.489 20.7201 276.93L46.4601 263.74Z" fill="#EA525F"/>
<path d="M48.6801 271.36L56.5901 289.36L43.5901 295.79C43.0693 296.047 42.474 296.109 41.9113 295.966C41.3487 295.823 40.8554 295.484 40.5201 295.01C39.3546 293.377 37.6254 292.233 35.6662 291.799C33.7069 291.365 31.6564 291.672 29.9101 292.66L24.6301 295.66C24.7635 292.711 25.5142 289.823 26.8337 287.183C28.1531 284.542 30.012 282.208 32.2901 280.33L33.2901 279.51C33.7846 279.104 34.321 278.752 34.8901 278.46L48.6801 271.36Z" fill="#F9B025"/>
<path d="M172.86 156.06C155.26 163.15 136.09 135.21 158.44 129.53L176.11 128.13C180.96 127.51 182.9 135.36 183.67 142.58C184.37 149.2 179.4 154.81 172.86 156.06Z" fill="#EA525F"/>
<path d="M230.27 156.74C227.175 145.205 220.778 134.825 211.866 126.875C202.953 118.926 191.912 113.752 180.1 111.99C177.8 108.71 175.1 106.9 172.1 106.61C168.4 106.26 164.48 108.14 160.42 112.2C154.701 113.189 149.152 114.987 143.94 117.54C103.05 115.67 93.1601 104.85 93.0701 104.75L92.1901 103.75L91.0701 104.53C82.6201 110.35 78.7901 116.14 79.6901 121.73C81.6901 134.46 107.92 142.1 123.57 146.66C125.57 147.26 127.46 147.8 129 148.28C132.19 156.86 130.33 165.23 128.35 174.08C127.21 179.21 126.03 184.52 125.93 189.86V189.99C126.61 200.99 132.17 212.75 145.68 212.89C151.38 214.89 152.35 218.37 153.22 221.48C153.95 224.14 154.86 227.4 159.3 227.4C159.62 227.4 159.96 227.4 160.3 227.35H160.51C174.22 224.02 182.75 218.45 185.88 210.78C188.6 204.09 187.21 195.99 181.73 186.66L199.73 178.48L199.82 177.63C201.05 165.9 197.65 155.07 194.36 144.63C193.58 142.15 192.79 139.63 192.06 137.1C200.263 143.78 206.487 152.573 210.06 162.53L210.53 163.83L230.68 158.18L230.27 156.74ZM212.35 160.08C208.023 148.849 200.487 139.139 190.68 132.16C189.872 130.081 188.923 128.06 187.84 126.11C187.642 125.771 187.319 125.524 186.94 125.421C186.562 125.317 186.158 125.366 185.815 125.557C185.473 125.748 185.218 126.066 185.107 126.442C184.996 126.818 185.036 127.223 185.22 127.57C186.285 129.503 187.214 131.508 188 133.57C189 137.57 190.25 141.57 191.46 145.42C194.58 155.35 197.8 165.61 196.88 176.42L180 184.09C178.36 181.37 173.94 176.09 164.3 176.09C163.902 176.09 163.521 176.248 163.239 176.529C162.958 176.811 162.8 177.192 162.8 177.59C162.8 177.988 162.958 178.369 163.239 178.651C163.521 178.932 163.902 179.09 164.3 179.09C174.86 179.09 177.87 186.41 178 186.74C178.14 187.075 178.395 187.348 178.72 187.51C184 196.26 185.47 203.69 183.06 209.61C180.32 216.31 172.52 221.28 159.87 224.37C157.15 224.62 156.87 223.6 156.06 220.68C155.06 217.2 153.76 212.43 146.36 209.97L146.13 209.89H145.89C131.32 209.89 129.18 194.64 128.89 189.89C128.99 184.89 130.13 179.73 131.24 174.76C133.16 166.15 135.14 157.26 132.08 148.15L134.08 146.82L131.08 145.82C129.29 145.24 126.98 144.56 124.31 143.82C110.31 139.74 84.31 132.15 82.55 121.29C81.88 117.14 84.95 112.58 91.68 107.74C95.09 110.64 107.97 119.05 144.09 120.64H144.48L144.82 120.47C150.013 117.882 155.565 116.089 161.29 115.15L161.77 115.07L162.12 114.72C164.54 112.23 168.12 109.33 171.71 109.72C173.96 109.94 176.04 111.48 177.91 114.32L178.28 114.89L178.95 114.98C190.059 116.515 200.49 121.22 208.994 128.53C217.498 135.841 223.715 145.447 226.9 156.2L212.35 160.08Z" fill="#0A0A0A"/>
<path d="M179.99 127.79C179.438 127.334 178.798 126.997 178.11 126.799C177.421 126.601 176.7 126.547 175.99 126.64L158.99 127.98L158.87 127.88L158.08 128.08C150.39 130.08 147.88 134.26 147.13 137.47C145.91 142.69 148.56 149 153.87 153.56C157.479 156.788 162.128 158.612 166.97 158.7C169.137 158.704 171.285 158.296 173.3 157.5C180.82 155.99 185.92 149.5 185.17 142.42C184.34 134.68 182.68 129.9 179.99 127.79ZM172.58 154.59L172.3 154.67C166.96 156.82 160.79 155.55 155.81 151.28C151.41 147.5 149.09 142.23 150.05 138.15C150.85 134.72 153.88 132.24 158.81 130.98V130.93C159.98 130.93 162.34 130.73 167.4 130.33L176.31 129.62C176.633 129.572 176.962 129.594 177.276 129.684C177.59 129.774 177.881 129.929 178.13 130.14C179.24 131.02 181.24 133.82 182.13 142.74C182.76 148.33 178.68 153.43 172.58 154.59Z" fill="#0A0A0A"/>
<path d="M209.081 61.0704C208.001 -4.04188 111.11 -4.03108 110.009 61.0704C111.099 126.183 207.98 126.172 209.081 61.0704Z" fill="#1D1D1B"/>
<path d="M225.78 209.47C222.78 206.61 218.34 205.77 212.55 206.97L206.97 193.15L178.68 205.05L179.27 206.44C182.88 215 185.18 221.64 187.03 226.98C190.03 235.63 191.53 239.98 195.03 241.36C195.762 241.648 196.543 241.791 197.33 241.78C200.89 241.78 205.77 239.23 214.49 234.65C218.28 232.65 222.99 230.2 228.58 227.42L229.24 227.09L229.39 226.37C229.45 225.91 231.57 215 225.78 209.47Z" fill="#0A0A0A"/>
<path d="M315.52 176.42L71.5199 300.42C70.4932 300.952 69.3714 301.276 68.2192 301.372C67.0669 301.468 65.907 301.335 64.8063 300.981C63.7056 300.627 62.6859 300.058 61.8061 299.308C60.9262 298.558 60.2036 297.641 59.6799 296.61L44.2799 266.31C43.7566 265.283 43.4408 264.163 43.3506 263.015C43.2604 261.866 43.3976 260.71 43.7542 259.614C44.1108 258.518 44.6799 257.504 45.429 256.628C46.1781 255.752 47.0925 255.032 48.1199 254.51L292.12 130.51C292.444 130.345 292.798 130.245 293.16 130.217C293.523 130.189 293.888 130.233 294.234 130.346C294.579 130.46 294.899 130.64 295.175 130.878C295.451 131.115 295.677 131.405 295.84 131.73C296.84 133.53 299.54 154.92 301.48 155.63L316.73 172.74C317.047 173.39 317.097 174.139 316.871 174.826C316.645 175.513 316.161 176.085 315.52 176.42Z" fill="#F9B025"/>
<path d="M81.56 236.66L44.68 256.48L42.45 262.56C44.29 270.83 57.5999 292.86 62.0099 300.32L69.09 301.41L102.41 284.28C100.99 262.5 95.51 252.06 81.41 235.82" fill="#EA525F"/>
<path d="M315.68 175.43C361.4 115.27 381.87 121.87 295.05 128.63C294.675 128.66 294.312 128.772 293.986 128.96C293.66 129.148 293.381 129.405 293.167 129.715C292.953 130.024 292.811 130.377 292.751 130.748C292.691 131.119 292.715 131.499 292.82 131.86L298.54 153.74C299.53 153.88 314.2 179.33 315.68 175.43Z" fill="#BA7C11"/>
<path d="M356.26 125.45C354.42 121.79 346.73 122.51 323.9 124.62C316.11 125.34 306.41 126.24 294.96 127.13C294.399 127.177 293.854 127.342 293.361 127.615C292.868 127.887 292.439 128.26 292.1 128.71C291.566 128.75 291.046 128.896 290.57 129.14L46.57 253.14C44.5012 254.187 42.8474 255.903 41.8778 258.009C40.9083 260.115 40.6799 262.488 41.23 264.74L20.03 275.61C18.8662 276.208 17.7699 276.928 16.76 277.76L14.92 279.28C10.5196 282.911 6.92899 287.423 4.37982 292.527C1.83065 297.63 0.379513 303.211 0.119995 308.91L0 311.62L12.19 304.74C15.1167 303.073 18.5587 302.555 21.8467 303.285C25.1347 304.015 28.0336 305.941 29.98 308.69C30.8064 309.871 32.0302 310.714 33.4275 311.067C34.8248 311.419 36.3024 311.257 37.59 310.61L59.31 299.89C60.2682 300.857 61.4083 301.626 62.6645 302.151C63.9208 302.676 65.2684 302.948 66.63 302.95C68.2397 302.954 69.827 302.573 71.26 301.84L315.26 177.84C315.631 177.636 315.968 177.376 316.26 177.07C316.555 176.876 316.793 176.606 316.95 176.29C328.15 161.56 337.76 150.94 344.77 143.17C354.05 132.89 357.86 128.67 356.26 125.45ZM36.26 307.87C35.609 308.197 34.8614 308.275 34.1566 308.091C33.4519 307.907 32.8382 307.473 32.43 306.87C30.0491 303.51 26.5019 301.158 22.4805 300.273C18.4591 299.387 14.252 300.031 10.68 302.08L3.29999 306.26C4.45919 296.603 9.28954 287.762 16.79 281.57L18.63 280.05C19.4744 279.359 20.3894 278.759 21.36 278.26L42.29 267.53L44.46 271.81L34.11 277.11C33.4394 277.453 32.8089 277.868 32.23 278.35L31.23 279.17C28.7934 281.181 26.8049 283.681 25.3926 286.507C23.9803 289.333 23.1755 292.424 23.03 295.58L22.91 298.29L30.55 293.96C31.9736 293.152 33.6464 292.901 35.2443 293.256C36.8423 293.611 38.2518 294.546 39.2 295.88C39.7416 296.658 40.5465 297.212 41.4657 297.442C42.3849 297.672 43.3562 297.561 44.2 297.13L54.72 291.94L57.44 297.29L57.5 297.38L36.26 307.87ZM45.86 274.48L53.37 289.26L42.88 294.44C42.6786 294.541 42.4477 294.566 42.2293 294.511C42.0109 294.456 41.8195 294.324 41.69 294.14C40.3114 292.202 38.2632 290.844 35.9413 290.329C33.6195 289.813 31.189 290.177 29.12 291.35L26.41 292.89C27.2791 288.416 29.6757 284.382 33.19 281.48L34.19 280.66C34.6042 280.32 35.0534 280.025 35.53 279.78L45.86 274.48ZM69.86 299.12C68.1408 299.989 66.1472 300.141 64.3159 299.544C62.4847 298.946 60.9651 297.646 60.09 295.93L44.69 265.63C43.817 263.911 43.6615 261.916 44.2577 260.082C44.8539 258.249 46.153 256.727 47.87 255.85L81.87 238.55C94.05 252.74 99.52 262.74 101.02 283.3L69.86 299.12ZM84.65 237.12L291.38 132.1C291.38 132.1 291.38 132.19 291.38 132.24L297.31 155.04L297.5 155.34C298.14 156.16 300.07 158.41 301.5 160.62C307.11 169.23 310.3 173.73 312.5 175.82L103.93 281.82C102.24 261.64 96.46 251.05 84.68 237.16L84.65 237.12ZM342.56 141.04C335.56 148.78 326.01 159.35 314.85 174.04C312.53 172.11 306.85 163.37 304 158.99C302.718 156.891 301.329 154.858 299.84 152.9L294.25 131.45C294.204 131.303 294.192 131.146 294.217 130.994C294.241 130.841 294.3 130.696 294.39 130.57C294.475 130.444 294.587 130.338 294.719 130.262C294.851 130.186 294.998 130.141 295.15 130.13C306.63 129.24 316.33 128.34 324.15 127.62C340.06 126.14 352.63 124.98 353.54 126.81C354.26 128.18 348.33 134.74 342.6 141.08L342.56 141.04Z" fill="#0A0A0A"/>
<path d="M354.28 124.58L331.86 125.74L333.1 135.17L341.42 143.93L342.06 143.79L355.32 126.59C355.479 126.405 355.578 126.178 355.607 125.936C355.635 125.694 355.59 125.45 355.478 125.234C355.367 125.018 355.193 124.84 354.979 124.723C354.766 124.607 354.522 124.557 354.28 124.58Z" fill="#1D1D1B"/>
<path d="M157.73 220.43C175.61 262.74 162.56 261.71 205 240.65C205 240.65 209.55 218.1 188.75 223.29L183.26 209.74L157.73 220.43Z" fill="#CECDCC"/>
<path d="M174.41 256.36C173.623 256.367 172.843 256.224 172.11 255.94C168.61 254.55 167.11 250.21 164.11 241.56C162.26 236.22 159.96 229.56 156.35 221.02L155.76 219.63L184.08 207.74L189.68 221.54C195.47 220.35 199.92 221.19 202.91 224.05C208.7 229.58 206.58 240.49 206.49 240.95L206.34 241.67L205.68 242C200.09 244.77 195.37 247.24 191.59 249.23C182.85 253.8 177.97 256.36 174.41 256.36ZM159.68 221.24C163.02 229.24 165.27 235.75 166.94 240.57C169.46 247.87 170.99 252.27 173.21 253.15C175.72 254.15 180.85 251.46 190.21 246.57C193.86 244.66 198.35 242.3 203.68 239.65C204.01 237.33 204.68 229.91 200.86 226.22C198.44 223.91 194.5 223.41 189.15 224.75L187.88 225.06L182.48 211.67L159.68 221.24Z" fill="#0A0A0A"/>
<path d="M211.42 161.89L228.83 157.13C225.752 145.784 219.411 135.59 210.594 127.813C201.777 120.036 190.872 115.018 179.23 113.38C173.16 104.13 165.78 108.81 161.11 113.6C155.243 114.566 149.554 116.403 144.23 119.05C101.52 117.17 91.8898 105.74 91.8898 105.74C57.2698 129.59 115.09 142.12 130.68 147.23L130.28 147.49C135.76 161.83 127.66 175.69 127.4 189.87C127.97 199.07 132.27 211.37 145.91 211.37C158.43 215.53 151.47 226.69 160.14 225.83C188.83 218.83 190.3 203.15 179.55 185.93L198.32 177.41C199.96 161.71 193.08 147.65 189.45 133.14C199.548 140.244 207.217 150.281 211.42 161.89Z" fill="#F5F2FA"/>
<path d="M172.86 156.06C155.26 163.15 136.09 135.21 158.44 129.53L176.11 128.13C180.96 127.51 182.9 135.36 183.67 142.58C184.37 149.2 179.4 154.81 172.86 156.06Z" fill="#EA525F"/>
<path d="M230.27 156.74C227.175 145.205 220.778 134.825 211.866 126.875C202.953 118.926 191.912 113.752 180.1 111.99C177.8 108.71 175.1 106.9 172.1 106.61C168.4 106.26 164.48 108.14 160.42 112.2C154.701 113.189 149.152 114.987 143.94 117.54C103.05 115.67 93.1601 104.85 93.0701 104.75L92.1901 103.75L91.0701 104.53C82.6201 110.35 78.7901 116.14 79.6901 121.73C81.6901 134.46 107.92 142.1 123.57 146.66C125.57 147.26 127.46 147.8 129 148.28C132.19 156.86 130.33 165.23 128.35 174.08C127.21 179.21 126.03 184.52 125.93 189.86V189.99C126.61 200.99 132.17 212.75 145.68 212.89C151.38 214.89 152.35 218.37 153.22 221.48C153.95 224.14 154.86 227.4 159.3 227.4C159.62 227.4 159.96 227.4 160.3 227.35H160.51C174.22 224.02 182.75 218.45 185.88 210.78C188.6 204.09 187.21 195.99 181.73 186.66L199.73 178.48L199.82 177.63C201.05 165.9 197.65 155.07 194.36 144.63C193.58 142.15 192.79 139.63 192.06 137.1C200.263 143.78 206.487 152.573 210.06 162.53L210.53 163.83L230.68 158.18L230.27 156.74ZM212.35 160.08C208.023 148.849 200.487 139.139 190.68 132.16C189.872 130.081 188.923 128.06 187.84 126.11C187.642 125.771 187.319 125.524 186.94 125.421C186.562 125.317 186.158 125.366 185.815 125.557C185.473 125.748 185.218 126.066 185.107 126.442C184.996 126.818 185.036 127.223 185.22 127.57C186.285 129.503 187.214 131.508 188 133.57C189 137.57 190.25 141.57 191.46 145.42C194.58 155.35 197.8 165.61 196.88 176.42L180 184.09C178.36 181.37 173.94 176.09 164.3 176.09C163.902 176.09 163.521 176.248 163.239 176.529C162.958 176.811 162.8 177.192 162.8 177.59C162.8 177.988 162.958 178.369 163.239 178.651C163.521 178.932 163.902 179.09 164.3 179.09C174.86 179.09 177.87 186.41 178 186.74C178.14 187.075 178.395 187.348 178.72 187.51C184 196.26 185.47 203.69 183.06 209.61C180.32 216.31 172.52 221.28 159.87 224.37C157.15 224.62 156.87 223.6 156.06 220.68C155.06 217.2 153.76 212.43 146.36 209.97L146.13 209.89H145.89C131.32 209.89 129.18 194.64 128.89 189.89C128.99 184.89 130.13 179.73 131.24 174.76C133.16 166.15 135.14 157.26 132.08 148.15L134.08 146.82L131.08 145.82C129.29 145.24 126.98 144.56 124.31 143.82C110.31 139.74 84.31 132.15 82.55 121.29C81.88 117.14 84.95 112.58 91.68 107.74C95.09 110.64 107.97 119.05 144.09 120.64H144.48L144.82 120.47C150.013 117.882 155.565 116.089 161.29 115.15L161.77 115.07L162.12 114.72C164.54 112.23 168.12 109.33 171.71 109.72C173.96 109.94 176.04 111.48 177.91 114.32L178.28 114.89L178.95 114.98C190.059 116.515 200.49 121.22 208.994 128.53C217.498 135.841 223.715 145.447 226.9 156.2L212.35 160.08Z" fill="#0A0A0A"/>
<path d="M179.99 127.79C179.438 127.334 178.798 126.997 178.11 126.799C177.421 126.601 176.7 126.547 175.99 126.64L158.99 127.98L158.87 127.88L158.08 128.08C150.39 130.08 147.88 134.26 147.13 137.47C145.91 142.69 148.56 149 153.87 153.56C157.479 156.788 162.128 158.612 166.97 158.7C169.137 158.704 171.285 158.296 173.3 157.5C180.82 155.99 185.92 149.5 185.17 142.42C184.34 134.68 182.68 129.9 179.99 127.79ZM172.58 154.59L172.3 154.67C166.96 156.82 160.79 155.55 155.81 151.28C151.41 147.5 149.09 142.23 150.05 138.15C150.85 134.72 153.88 132.24 158.81 130.98V130.93C159.98 130.93 162.34 130.73 167.4 130.33L176.31 129.62C176.633 129.572 176.962 129.594 177.276 129.684C177.59 129.774 177.881 129.929 178.13 130.14C179.24 131.02 181.24 133.82 182.13 142.74C182.76 148.33 178.68 153.43 172.58 154.59Z" fill="#0A0A0A"/>
<path d="M211.89 60.6497C210.55 -18.2203 93.2296 -18.2103 91.8896 60.6497C93.2396 139.52 210.56 139.51 211.89 60.6497Z" fill="#F5F2FA"/>
<path d="M151.9 121.3C122.77 121.3 91.0996 102.3 90.3896 60.68C91.0996 18.97 122.76 0 151.89 0C181.02 0 212.68 19 213.39 60.62V60.67C212.68 102.32 181.02 121.29 151.9 121.3ZM151.9 3C124.2 3 94.0697 21.05 93.3997 60.68C94.0797 100.25 124.2 118.3 151.9 118.3C179.59 118.3 209.71 100.25 210.39 60.65C209.68 21.04 179.59 3 151.89 3H151.9Z" fill="#0A0A0A"/>
<path d="M209.081 61.0704C208.001 -4.04188 111.11 -4.03108 110.009 61.0704C111.099 126.183 207.98 126.172 209.081 61.0704Z" fill="#1D1D1B"/>
<path d="M148.04 30.6304C176.55 30.5304 191.34 51.2904 198.43 72.9104C205.68 49.9704 187.81 24.7404 163.68 23.9804C157.68 21.9904 127.99 32.7404 148.04 30.6304Z" fill="#F6F6F6"/>
<path d="M245.22 55.9901L244.58 62.3401L233.16 70.3401C232.68 70.6801 232.335 71.1784 232.186 71.7474C232.038 72.3164 232.094 72.9197 232.346 73.4512C232.598 73.9827 233.029 74.4083 233.564 74.6532C234.099 74.898 234.703 74.9465 235.27 74.7901L249.74 70.7401C256.41 75.9801 259.46 73.8401 258.59 65.6601C264.19 60.8701 261.47 56.5801 254.59 57.7101C252.36 56.5901 246.3 50.6501 245.22 55.9901Z" fill="#F9B025"/>
<path d="M234.55 76.4098C233.702 76.4015 232.879 76.124 232.199 75.6174C231.519 75.1108 231.018 74.4012 230.767 73.5912C230.517 72.7811 230.531 71.9124 230.806 71.1106C231.082 70.3087 231.605 69.6151 232.3 69.1298L243.16 61.5098L243.75 55.6898C243.821 55.0111 244.067 54.3625 244.465 53.8083C244.863 53.2541 245.399 52.8134 246.02 52.5298C248.39 51.5898 251.27 53.6298 253.59 55.2698C254.06 55.5998 254.51 55.9198 254.86 56.1498C258.73 55.6498 261.64 56.6898 262.71 58.9898C263.19 60.0398 263.87 62.7798 260.15 66.2698C260.51 70.7298 259.69 73.4598 257.63 74.5898C255.57 75.7198 252.92 74.9898 249.43 72.3798L235.68 76.2498C235.313 76.3577 234.932 76.4116 234.55 76.4098ZM246.68 56.2198L245.99 63.2198L233.99 71.6298C233.784 71.7528 233.635 71.9512 233.573 72.1828C233.511 72.4144 233.543 72.6609 233.66 72.8698C233.749 73.0919 233.92 73.2715 234.138 73.3719C234.355 73.4722 234.603 73.4858 234.83 73.4098L250.04 69.1298L250.64 69.5998C253.64 71.9598 255.46 72.3898 256.15 72.0098C256.84 71.6298 257.48 69.7898 257.07 65.8598L256.98 65.0798L257.58 64.5598C259.88 62.5598 260.3 61.0298 259.96 60.2998C259.62 59.5698 257.76 58.7398 254.78 59.2298L254.3 59.3098L253.86 59.0898C253.165 58.6904 252.497 58.2461 251.86 57.7598C250.7 56.9398 247.99 55.0198 247.14 55.3598C247.03 55.3598 246.84 55.5898 246.68 56.2198Z" fill="#0A0A0A"/>
<path d="M75.32 173.509L74.69 179.859L63.26 187.859C62.7723 188.196 62.4202 188.696 62.2666 189.268C62.1129 189.841 62.1678 190.449 62.4213 190.985C62.6748 191.521 63.1105 191.95 63.6506 192.194C64.1908 192.438 64.8001 192.483 65.37 192.319L79.85 188.239C86.51 193.489 89.56 191.339 88.69 183.169C94.29 178.379 91.57 174.079 84.69 175.219C82.46 174.109 76.4 168.159 75.32 173.509Z" fill="#F9B025"/>
<path d="M64.6801 193.93C63.8322 193.922 63.009 193.644 62.3291 193.138C61.6493 192.631 61.148 191.921 60.8976 191.111C60.6472 190.301 60.6608 189.433 60.9362 188.631C61.2116 187.829 61.7348 187.135 62.4301 186.65L73.2901 179.03L73.8801 173.21C73.9526 172.532 74.1999 171.884 74.5978 171.33C74.9957 170.776 75.5306 170.335 76.1501 170.05C78.5201 169.1 81.4101 171.15 83.7201 172.79C84.1901 173.12 84.6401 173.44 85.0001 173.67C88.8501 173.16 91.7701 174.21 92.8401 176.51C93.3301 177.56 94.0001 180.3 90.2801 183.79C90.6501 188.25 89.8201 190.97 87.7601 192.11C85.7001 193.25 83.0501 192.51 79.5601 189.9L65.7801 193.74C65.4239 193.854 65.0537 193.918 64.6801 193.93ZM76.8101 173.74L76.1101 180.74L64.1101 189.14C63.9056 189.267 63.7574 189.467 63.6961 189.699C63.6347 189.932 63.6647 190.179 63.7801 190.39C63.8675 190.613 64.0387 190.794 64.2573 190.893C64.4759 190.992 64.7244 191.002 64.9501 190.92L80.1701 186.64L80.7701 187.11C83.7701 189.48 85.5801 189.9 86.2701 189.52C86.9601 189.14 87.6101 187.31 87.1901 183.38L87.1001 182.59L87.7001 182.08C90.0101 180.08 90.4201 178.55 90.0801 177.81C89.7401 177.07 87.8901 176.25 84.9001 176.75L84.4201 176.82L83.9801 176.6C83.2837 176.207 82.6154 175.766 81.9801 175.28C80.8201 174.46 78.1001 172.54 77.2501 172.88C77.1401 172.87 76.9401 173.11 76.8101 173.74Z" fill="#0A0A0A"/>
<path d="M41.7299 45.7897L41.0999 52.1397L29.6699 60.1397C29.1822 60.4767 28.8301 60.976 28.6765 61.5486C28.5228 62.1212 28.5777 62.7297 28.8312 63.2656C29.0847 63.8015 29.5204 64.2298 30.0606 64.4742C30.6007 64.7185 31.21 64.763 31.7799 64.5997L46.2599 60.5197C52.9199 65.7697 55.9699 63.6197 55.0999 55.4497C60.6999 50.6597 57.9799 46.3597 51.0999 47.4997C48.8699 46.3897 42.8099 40.4397 41.7299 45.7897Z" fill="#F9B025"/>
<path d="M31.06 66.2098C30.2095 66.2045 29.3827 65.9282 28.6999 65.421C28.0171 64.9138 27.5137 64.2022 27.2629 63.3895C27.012 62.5768 27.0268 61.7052 27.305 60.9014C27.5832 60.0977 28.1104 59.4035 28.81 58.9198L39.68 51.3098L40.27 45.4898C40.3416 44.8113 40.5885 44.1632 40.9865 43.6091C41.3845 43.0551 41.9199 42.6141 42.54 42.3298C44.91 41.3298 47.79 43.4298 50.11 45.0698C50.58 45.3998 51.03 45.7198 51.39 45.9498C55.25 45.4398 58.16 46.4898 59.23 48.7898C59.72 49.7898 60.39 52.5798 56.67 56.0698C57.03 60.5298 56.21 63.2498 54.15 64.3898C52.09 65.5298 49.44 64.7798 45.95 62.1798L32.2 66.0498C31.8295 66.157 31.4457 66.2108 31.06 66.2098ZM43.22 46.0098L42.52 53.0098L30.52 61.4198C30.3291 61.5558 30.1921 61.7547 30.1329 61.9815C30.0737 62.2084 30.0961 62.4488 30.1961 62.6608C30.2962 62.8728 30.4676 63.0429 30.6803 63.1414C30.893 63.2399 31.1336 63.2606 31.36 63.1998L46.58 58.9198L47.17 59.3898C50.17 61.7498 51.98 62.1898 52.68 61.7998C53.38 61.4098 54.02 59.5798 53.6 55.6598L53.51 54.8698L54.11 54.3598C56.42 52.3598 56.83 50.8298 56.49 50.0898C56.15 49.3498 54.3 48.5298 51.31 49.0298L50.83 49.0998L50.39 48.8798C49.6952 48.4803 49.0271 48.036 48.39 47.5498C47.24 46.7298 44.52 44.8198 43.67 45.1498C43.55 45.1498 43.35 45.3798 43.22 46.0098Z" fill="#0A0A0A"/>
<path d="M100.18 115.5C99.7497 90.5 62.5997 90.5 62.1797 115.5C62.6097 140.48 99.7597 140.47 100.18 115.5Z" fill="#CECDCC"/>
<path d="M81.1797 135.74C71.4697 135.74 60.9197 129.42 60.6797 115.54C60.9097 101.61 71.4697 95.2803 81.1797 95.2803C90.8897 95.2803 101.44 101.6 101.68 115.49V115.54C101.44 129.41 90.8897 135.74 81.1797 135.74ZM81.1797 98.2803C72.8897 98.2803 63.8797 103.68 63.6797 115.54C63.8797 127.34 72.8897 132.74 81.1797 132.74C89.4597 132.74 98.4697 127.35 98.6797 115.51C98.4597 103.67 89.4597 98.2703 81.1797 98.2703V98.2803Z" fill="#0A0A0A"/>
<path d="M234.46 156.38C234.38 136.76 204.55 136.76 204.46 156.38C204.55 175.99 234.38 175.99 234.46 156.38Z" fill="#CECDCC"/>
<path d="M219.47 172.59C211.3 172.59 203.01 167.02 202.96 156.39C202.91 145.76 211.3 140.17 219.46 140.17C227.62 140.17 235.92 145.73 235.96 156.37C235.92 167.02 227.68 172.59 219.47 172.59ZM219.47 143.17C213 143.17 206.01 147.3 205.97 156.39C205.93 165.48 212.97 169.59 219.48 169.59C225.99 169.59 232.93 165.45 232.97 156.38C233.01 147.31 225.94 143.17 219.46 143.17H219.47Z" fill="#0A0A0A"/>
<path d="M99.3995 44.9906C88.8395 39.1406 80.5895 54.9906 80.7195 64.3206C80.7197 68.0862 81.606 71.7991 83.3067 75.1588C85.0074 78.5186 87.4748 81.431 90.5095 83.6606C101.07 89.5106 109.32 73.6606 109.19 64.3306C109.189 60.5649 108.303 56.8521 106.602 53.4923C104.902 50.1326 102.434 47.2202 99.3995 44.9906Z" fill="#CECDCC"/>
<path d="M95.0696 86.4304C93.2104 86.4042 91.389 85.9015 89.7796 84.9704L89.6196 84.8704C86.4018 82.495 83.7851 79.399 81.9791 75.8305C80.1731 72.2619 79.228 68.3199 79.2196 64.3204C79.1196 57.4404 83.2196 47.5304 89.4596 43.7904C91.0541 42.7876 92.8955 42.2465 94.779 42.2271C96.6626 42.2077 98.5147 42.7107 100.13 43.6804L100.29 43.7804C103.505 46.1568 106.12 49.2532 107.924 52.8218C109.729 56.3903 110.672 60.3317 110.68 64.3304C110.78 71.2104 106.68 81.1204 100.44 84.8604C98.8264 85.8639 96.9693 86.4069 95.0696 86.4304ZM91.3196 82.4304C92.4696 83.1189 93.7884 83.4742 95.1287 83.4566C96.469 83.4389 97.7781 83.049 98.9096 82.3304C104.19 79.1704 107.77 70.3304 107.69 64.3904C107.684 60.8751 106.859 57.4095 105.279 54.2691C103.699 51.1288 101.409 48.4002 98.5896 46.3004C97.4395 45.6118 96.1207 45.2565 94.7804 45.2742C93.4401 45.2919 92.1311 45.6818 90.9996 46.4004C85.7196 49.5604 82.1396 58.4004 82.2196 64.3404C82.2312 67.8489 83.0595 71.3066 84.639 74.4395C86.2185 77.5724 88.5057 80.2946 91.3196 82.3904V82.4304Z" fill="#1D1D1B"/>
</svg>
