<svg width="40" height="41" viewBox="0 0 40 41" fill="none" xmlns="http://www.w3.org/2000/svg">
<path d="M20 0.00854492C16.5126 0.00948323 13.086 0.922055 10.06 2.65576C7.03411 4.38946 4.51395 6.88406 2.74949 9.89217C0.985034 12.9003 0.0375813 16.3174 0.00109518 19.8046C-0.0353909 23.2918 0.840357 26.728 2.54149 29.7724L0.820895 35.7939C0.686325 36.2647 0.680104 36.7629 0.802876 37.2368C0.925648 37.7108 1.17295 38.1433 1.51914 38.4895C1.86532 38.8357 2.29781 39.083 2.77176 39.2058C3.24571 39.3286 3.74388 39.3224 4.21463 39.1879L10.2364 37.4673C12.904 38.959 15.8779 39.8195 18.9299 39.9828C21.9819 40.1461 25.0307 39.6078 27.8422 38.4093C30.6537 37.2107 33.1532 35.3838 35.1486 33.0688C37.1441 30.7538 38.5825 28.0123 39.3533 25.0548C40.1242 22.0972 40.2071 19.0024 39.5955 16.0079C38.984 13.0134 37.6943 10.1988 35.8256 7.78036C33.9568 5.36191 31.5587 3.40388 28.8153 2.05663C26.0719 0.709389 23.0563 0.00875899 20 0.00854492ZM20 37.6557C16.8307 37.6579 13.7195 36.8053 10.9941 35.1877C10.8562 35.1058 10.7031 35.0529 10.5441 35.0322C10.3851 35.0116 10.2235 35.0237 10.0694 35.0677L3.56816 36.9251C3.50094 36.9444 3.42981 36.9453 3.36212 36.9277C3.29444 36.9102 3.23268 36.8749 3.18323 36.8255C3.13378 36.7761 3.09846 36.7143 3.08091 36.6466C3.06337 36.579 3.06425 36.5078 3.08345 36.4406L4.94071 29.9392C4.98475 29.7851 4.99682 29.6236 4.97619 29.4647C4.95555 29.3057 4.90264 29.1527 4.82071 29.0149C2.83303 25.6661 2.00871 21.754 2.47615 17.8879C2.94359 14.0219 4.67655 10.4189 7.40506 7.64039C10.1336 4.86186 13.7044 3.06374 17.5614 2.52616C21.4183 1.98857 25.3448 2.7417 28.7291 4.66822C32.1134 6.59475 34.7655 9.58648 36.2724 13.1774C37.7792 16.7683 38.056 20.7567 37.0598 24.5214C36.0636 28.286 33.8503 31.6155 30.7646 33.9912C27.6789 36.3668 23.8942 37.6552 20 37.6557ZM30.0988 23.3041L26.087 21.0114C25.6635 20.7699 25.1834 20.6454 24.6959 20.6506C24.2085 20.6559 23.7311 20.7907 23.3129 21.0412L20.7943 22.5523C19.38 21.7889 18.2198 20.6286 17.4564 19.2143L18.9676 16.6957C19.2182 16.2774 19.353 15.8001 19.3581 15.3126C19.3633 14.8251 19.2387 14.345 18.997 13.9215L16.7047 9.90975C16.4831 9.52318 16.1636 9.20187 15.7782 8.97824C15.3928 8.75461 14.9553 8.63656 14.5098 8.63602C12.746 8.63658 11.0542 9.33586 9.80476 10.5808C8.55532 11.8258 7.84997 13.515 7.84307 15.2788C7.8399 17.4952 8.27373 19.6906 9.11973 21.7392C9.96574 23.7879 11.2073 25.6496 12.7735 27.218C14.3396 28.7864 16.1996 30.0307 18.2471 30.8796C20.2945 31.7285 22.4892 32.1655 24.7057 32.1655H24.7298C26.4936 32.1586 28.1828 31.4532 29.4278 30.2038C30.6727 28.9544 31.372 27.2626 31.3726 25.4988C31.372 25.0533 31.254 24.6158 31.0304 24.2304C30.8067 23.8451 30.4854 23.5256 30.0988 23.3041ZM24.7265 29.8126H24.7059C22.7987 29.8126 20.9102 29.4366 19.1485 28.7061C17.3867 27.9756 15.7863 26.905 14.4386 25.5555C13.091 24.206 12.0226 22.604 11.2947 20.8413C10.5667 19.0785 10.1933 17.1895 10.196 15.2823C10.2011 14.1417 10.6579 13.0495 11.4663 12.2449C12.2748 11.4402 13.3691 10.9886 14.5098 10.989C14.5406 10.989 14.5709 10.9972 14.5976 11.0127C14.6243 11.0282 14.6464 11.0504 14.6617 11.0772L16.9541 15.089C16.9886 15.1494 17.0064 15.218 17.0057 15.2876C17.0049 15.3572 16.9857 15.4253 16.95 15.4851L15.1088 18.5537C15.0112 18.7164 14.9545 18.9003 14.9433 19.0897C14.9322 19.2791 14.967 19.4683 15.0449 19.6413C16.1078 22.0071 18.0016 23.9009 20.3674 24.9637C20.5404 25.0416 20.7297 25.0764 20.9191 25.0652C21.1085 25.0541 21.2924 24.9972 21.4551 24.8996L24.5233 23.0588C24.5831 23.0231 24.6513 23.0039 24.7209 23.0031C24.7906 23.0023 24.8592 23.02 24.9198 23.0543L28.9316 25.347C28.9583 25.3624 28.9805 25.3845 28.9959 25.4111C29.0114 25.4378 29.0196 25.468 29.0196 25.4988C29.0199 26.6394 28.5684 27.7337 27.7638 28.5422C26.9592 29.3506 25.8671 29.8074 24.7265 29.8126Z" fill="#F9B025"/>
</svg>
