<svg width="218" height="24" viewBox="0 0 218 24" fill="none" xmlns="http://www.w3.org/2000/svg">
<path d="M104.749 3.06099C102.977 1.80652 100.872 1.10428 98.7005 1.04307C96.5286 0.981862 94.3872 1.56444 92.5472 2.71712C90.7072 3.86981 89.2513 5.54083 88.3635 7.51887C87.4756 9.49691 87.1959 11.6931 87.5595 13.8298C87.9231 15.9664 88.9138 17.9475 90.4062 19.5226C91.8987 21.0976 93.8259 22.1959 95.9442 22.6784C98.0625 23.1609 100.277 23.0061 102.307 22.2335C104.337 21.4609 106.091 20.1052 107.349 18.3378C109.035 15.9681 109.709 13.0273 109.221 10.1624C108.733 7.29747 107.125 4.74304 104.749 3.06099Z" fill="#F9B025"/>
<path fill-rule="evenodd" clip-rule="evenodd" d="M92.2638 2.26038C94.1936 1.05141 96.4395 0.44039 98.7175 0.504586C100.995 0.568781 103.203 1.30531 105.062 2.62103C107.553 4.38522 109.24 7.06437 109.752 10.0692C110.263 13.074 109.557 16.1584 107.788 18.6438C106.469 20.4975 104.629 21.9194 102.5 22.7297C100.371 23.54 98.0483 23.7024 95.8266 23.1963C93.6049 22.6902 91.5836 21.5384 90.0183 19.8864C88.4529 18.2345 87.4139 16.1566 87.0325 13.9156C86.6511 11.6747 86.9446 9.37121 87.8757 7.29659C88.8069 5.22196 90.3339 3.46935 92.2638 2.26038ZM98.6872 1.57422C96.6213 1.516 94.5845 2.07013 92.8344 3.16653C91.0842 4.26293 89.6994 5.85236 88.8549 7.73382C88.0104 9.61527 87.7443 11.7042 88.0902 13.7366C88.436 15.7689 89.3783 17.6533 90.7979 19.1514C92.2175 20.6495 94.0507 21.6941 96.0655 22.1531C98.0803 22.6121 100.186 22.4648 102.117 21.73C104.048 20.9951 105.717 19.7056 106.913 18.0245C108.517 15.7705 109.158 12.9733 108.694 10.2483C108.23 7.52322 106.7 5.09352 104.441 3.4936C102.755 2.30039 100.753 1.63243 98.6872 1.57422Z" fill="#292929"/>
<path fill-rule="evenodd" clip-rule="evenodd" d="M96.5976 10.4338C97.7106 10.9646 98.6901 11.7375 99.4643 12.6955C100.238 13.6535 100.788 14.7724 101.071 15.9699C101.355 17.1674 101.366 18.4131 101.104 19.6155C100.841 20.8178 100.312 21.9462 99.555 22.9178C98.0253 23.0594 96.4828 22.883 95.025 22.3998C93.5672 21.9165 92.2257 21.1368 91.0853 20.11C89.945 19.0833 89.0306 17.8317 88.4 16.4345C87.7693 15.0372 87.4361 13.5247 87.4214 11.9925C88.6005 10.8163 90.1167 10.0345 91.7606 9.75527C93.4045 9.47604 95.0947 9.71313 96.5976 10.4338Z" fill="#BA7C11"/>
<path fill-rule="evenodd" clip-rule="evenodd" d="M96.3663 10.9123C94.9636 10.2397 93.386 10.0184 91.8517 10.279C90.3916 10.5271 89.0393 11.1999 87.9635 12.2106C88.0066 13.5911 88.3211 14.9504 88.8902 16.2112C89.4904 17.5409 90.3606 18.732 91.4459 19.7092C92.5311 20.6864 93.8078 21.4284 95.1953 21.8884C96.5084 22.3237 97.8937 22.4974 99.2726 22.4004C99.9059 21.535 100.352 20.5466 100.581 19.498C100.826 18.3738 100.816 17.209 100.55 16.0893C100.285 14.9696 99.7716 13.9234 99.0477 13.0276C98.3239 12.1318 97.4079 11.4091 96.3673 10.9128L96.3663 10.9123ZM96.8306 9.94766C95.2277 9.17917 93.4249 8.92635 91.6716 9.22417C89.9182 9.52203 88.3008 10.3559 87.0432 11.6105L86.884 11.7694L86.8861 11.9939C86.9015 13.6002 87.2508 15.1857 87.9119 16.6505C88.573 18.1152 89.5316 19.4272 90.727 20.5035C91.9224 21.5799 93.3287 22.3972 94.8569 22.9038C96.3852 23.4104 98.0021 23.5953 99.6057 23.4468L99.8371 23.4254L99.9796 23.2424C100.786 22.2078 101.349 21.006 101.629 19.7256C101.908 18.4452 101.896 17.1185 101.594 15.8432C101.292 14.5679 100.707 13.3764 99.883 12.3561C99.0587 11.3359 98.0157 10.513 96.8306 9.94766Z" fill="#292929"/>
<path fill-rule="evenodd" clip-rule="evenodd" d="M105.534 3.68151C104.08 2.45551 102.334 1.62279 100.464 1.26318V1.28102C100.305 1.61268 100.214 1.97229 100.196 2.33916C100.177 2.70602 100.232 3.0729 100.356 3.41867C100.481 3.76444 100.672 4.08226 100.92 4.35387C101.168 4.62547 101.467 4.84549 101.801 5.00125C102.472 5.31445 103.24 5.35159 103.939 5.10464C104.637 4.85769 105.211 4.34649 105.534 3.68151Z" fill="#BA7C11"/>
<path fill-rule="evenodd" clip-rule="evenodd" d="M99.929 0.612183L100.567 0.734861C102.527 1.11182 104.358 1.98472 105.883 3.26987L106.201 3.53824L106.019 3.91228C105.633 4.70368 104.951 5.31207 104.12 5.60597C103.289 5.89986 102.375 5.85566 101.576 5.48292L101.575 5.48282C101.178 5.29715 100.821 5.03488 100.525 4.71111C100.23 4.38734 100.001 4.00846 99.8532 3.59629C99.7051 3.18412 99.6401 2.74678 99.662 2.30945C99.6818 1.91407 99.7724 1.52576 99.929 1.16275V0.612183ZM100.811 1.88151C100.768 2.03835 100.742 2.19975 100.733 2.36293C100.719 2.65933 100.763 2.95574 100.863 3.23511C100.964 3.51447 101.118 3.77125 101.319 3.99069C101.519 4.21008 101.761 4.3878 102.03 4.51364M100.811 1.88151C102.274 2.22897 103.647 2.88385 104.837 3.80236C104.568 4.16596 104.195 4.44433 103.762 4.59738C103.196 4.79735 102.574 4.76731 102.03 4.51373" fill="#292929"/>
<path d="M107.741 7.86457C107.846 7.64258 107.883 7.39444 107.847 7.15154C107.81 6.90864 107.703 6.68191 107.537 6.50001C107.372 6.31812 107.156 6.18925 106.917 6.1297C106.679 6.07015 106.427 6.0826 106.196 6.16548C105.964 6.24836 105.762 6.39793 105.616 6.59529C105.469 6.79264 105.385 7.0289 105.373 7.27418C105.361 7.51946 105.422 7.76273 105.549 7.97322C105.676 8.18371 105.862 8.35196 106.085 8.45668C106.383 8.59599 106.725 8.61192 107.035 8.50099C107.345 8.39007 107.599 8.16129 107.741 7.86457Z" fill="#BA7C11"/>
<path fill-rule="evenodd" clip-rule="evenodd" d="M106.014 5.65818C106.345 5.53958 106.705 5.52176 107.047 5.60697C107.389 5.69219 107.697 5.8766 107.934 6.1369C108.171 6.39719 108.325 6.72165 108.376 7.06924C108.428 7.41682 108.375 7.77191 108.225 8.0896L107.74 7.86088L108.224 8.09098C108.022 8.51523 107.659 8.84232 107.215 9.00092C106.772 9.15952 106.284 9.13674 105.857 8.93756L105.855 8.93691C105.537 8.78705 105.27 8.54629 105.088 8.24507C104.907 7.94386 104.819 7.59574 104.836 7.24474C104.853 6.89374 104.974 6.55565 105.184 6.27323C105.393 5.99082 105.682 5.77677 106.014 5.65818ZM107.255 7.63147C107.315 7.50536 107.336 7.36443 107.315 7.22647C107.295 7.08826 107.233 6.95926 107.139 6.85578C107.045 6.75229 106.922 6.67897 106.787 6.64508C106.651 6.6112 106.508 6.61829 106.376 6.66544C106.244 6.7126 106.129 6.7977 106.046 6.90998C105.962 7.02227 105.914 7.15669 105.908 7.29624C105.901 7.43579 105.936 7.57421 106.008 7.69397C106.08 7.81351 106.186 7.90911 106.312 7.96871C106.482 8.04784 106.677 8.05681 106.853 7.99365C107.03 7.93049 107.174 7.80031 107.255 7.63147Z" fill="#292929"/>
<path d="M27.7229 2.0946V23.4999H23.4213V8.56527L17.9214 23.4999H14.1729L8.67302 8.6266V23.4999H4.3407V2.0946H9.59479L16.1086 18.1946L22.4996 2.0946H27.7229Z" fill="white"/>
<path d="M34.5671 1.84927V14.5453C34.5671 16.2422 34.9358 17.5199 35.6732 18.3786C36.4311 19.2168 37.5167 19.6359 38.9301 19.6359C40.323 19.6359 41.3882 19.2168 42.1256 18.3786C42.8835 17.5199 43.2624 16.2422 43.2624 14.5453V1.84927H47.564V14.5453C47.564 16.5488 47.1851 18.2457 46.4272 19.6359C45.6898 21.0057 44.6553 22.0279 43.3239 22.7026C42.0129 23.3773 40.5176 23.7146 38.8379 23.7146C36.2365 23.7146 34.1574 22.9377 32.6006 21.3839C31.0439 19.8302 30.2655 17.5506 30.2655 14.5453V1.84927H34.5671Z" fill="white"/>
<path d="M68.6726 23.4999H64.3402L54.6309 8.77994V23.4999H50.2986V1.84927H54.6309L64.3402 16.6919V1.84927H68.6726V23.4999Z" fill="white"/>
<path d="M89.7964 12.6439C89.7964 14.7906 89.3458 16.6817 88.4445 18.3173C87.5432 19.9528 86.2323 21.2306 84.5116 22.1506C82.8115 23.0502 80.7836 23.4999 78.4279 23.4999H70.7158V1.84927H78.4279C80.7836 1.84927 82.8115 2.29905 84.5116 3.1986C86.2323 4.07771 87.5432 5.33505 88.4445 6.9706C89.3458 8.58571 89.7964 10.4768 89.7964 12.6439ZM78.0592 19.6359C80.3944 19.6359 82.197 19.0226 83.467 17.7959C84.7574 16.5693 85.4027 14.8519 85.4027 12.6439C85.4027 10.4155 84.7574 8.68794 83.467 7.46127C82.197 6.2346 80.3944 5.62127 78.0592 5.62127H75.0481V19.6359H78.0592Z" fill="white"/>
<path d="M134.608 12.6439C134.608 14.7906 134.157 16.6817 133.256 18.3173C132.355 19.9528 131.044 21.2306 129.323 22.1506C127.623 23.0502 125.595 23.4999 123.239 23.4999H115.527V1.84927H123.239C125.595 1.84927 127.623 2.29905 129.323 3.1986C131.044 4.07771 132.355 5.33505 133.256 6.9706C134.157 8.58571 134.608 10.4768 134.608 12.6439ZM122.871 19.6359C125.206 19.6359 127.008 19.0226 128.278 17.7959C129.569 16.5693 130.214 14.8519 130.214 12.6439C130.214 10.4155 129.569 8.68794 128.278 7.46127C127.008 6.2346 125.206 5.62127 122.871 5.62127H119.859V19.6359H122.871Z" fill="white"/>
<path d="M149.143 19.1453H140.448L138.911 23.4999H134.333L142.322 2.0946H147.269L155.227 23.4999H150.648L149.143 19.1453ZM147.975 15.8639L144.78 6.72527L141.584 15.8639H147.975Z" fill="white"/>
<path d="M164.988 20.1879H172.27V23.4999H160.655V1.84927H164.988V20.1879Z" fill="white"/>
<path d="M177.89 1.84927V14.5453C177.89 16.2422 178.259 17.5199 178.996 18.3786C179.754 19.2168 180.84 19.6359 182.253 19.6359C183.646 19.6359 184.711 19.2168 185.448 18.3786C186.206 17.5199 186.585 16.2422 186.585 14.5453V1.84927H190.887V14.5453C190.887 16.5488 190.508 18.2457 189.75 19.6359C189.013 21.0057 187.978 22.0279 186.647 22.7026C185.336 23.3773 183.84 23.7146 182.161 23.7146C179.559 23.7146 177.48 22.9377 175.923 21.3839C174.367 19.8302 173.588 17.5506 173.588 14.5453V1.84927H177.89Z" fill="white"/>
<path d="M206.615 19.1453H197.92L196.384 23.4999H191.806L199.794 2.0946H204.741L212.699 23.4999H208.121L206.615 19.1453ZM205.448 15.8639L202.252 6.72527L199.057 15.8639H205.448Z" fill="white"/>
</svg>
