<svg width="40" height="41" viewBox="0 0 40 41" fill="none" xmlns="http://www.w3.org/2000/svg">
<path d="M20 10.6208C18.1433 10.6208 16.3283 11.1714 14.7844 12.2029C13.2406 13.2345 12.0374 14.7006 11.3268 16.416C10.6163 18.1314 10.4304 20.019 10.7926 21.84C11.1549 23.6611 12.049 25.3338 13.3619 26.6467C14.6748 27.9596 16.3475 28.8537 18.1685 29.2159C19.9896 29.5781 21.8772 29.3922 23.5925 28.6817C25.3079 27.9712 26.7741 26.7679 27.8056 25.2241C28.8372 23.6803 29.3878 21.8653 29.3878 20.0085C29.3849 17.5196 28.395 15.1334 26.635 13.3735C24.8751 11.6136 22.4889 10.6236 20 10.6208ZM20 26.9473C18.6276 26.9473 17.2861 26.5404 16.145 25.7779C15.0039 25.0155 14.1146 23.9318 13.5894 22.6639C13.0642 21.396 12.9268 20.0008 13.1946 18.6549C13.4623 17.3089 14.1231 16.0725 15.0935 15.1021C16.0639 14.1317 17.3003 13.4708 18.6463 13.2031C19.9923 12.9354 21.3875 13.0728 22.6554 13.598C23.9233 14.1231 25.0069 15.0125 25.7694 16.1536C26.5318 17.2946 26.9388 18.6362 26.9388 20.0085C26.9367 21.8482 26.2049 23.6119 24.9041 24.9127C23.6033 26.2135 21.8396 26.9452 20 26.9473ZM28.9796 0.00854492H11.0204C8.09864 0.0118938 5.2975 1.17404 3.2315 3.24005C1.1655 5.30605 0.00334886 8.10719 0 11.029V28.9881C0.00334886 31.9099 1.1655 34.711 3.2315 36.777C5.2975 38.843 8.09864 40.0052 11.0204 40.0085H28.9796C31.9014 40.0052 34.7025 38.843 36.7685 36.777C38.8345 34.711 39.9967 31.9099 40 28.9881V11.029C39.9967 8.10719 38.8345 5.30605 36.7685 3.24005C34.7025 1.17404 31.9014 0.0118938 28.9796 0.00854492ZM37.551 28.9881C37.5485 31.2606 36.6446 33.4393 35.0377 35.0462C33.4308 36.6532 31.2521 37.557 28.9796 37.5596H11.0204C8.7479 37.557 6.5692 36.6532 4.9623 35.0462C3.35539 33.4393 2.45152 31.2606 2.44898 28.9881V11.029C2.45152 8.75645 3.35539 6.57775 4.9623 4.97084C6.5692 3.36394 8.7479 2.46006 11.0204 2.45752H28.9796C31.2521 2.46006 33.4308 3.36394 35.0377 4.97084C36.6446 6.57775 37.5485 8.75645 37.551 11.029V28.9881ZM32.6531 9.3963C32.6531 9.79994 32.5334 10.1945 32.3091 10.5301C32.0849 10.8657 31.7661 11.1273 31.3932 11.2818C31.0203 11.4362 30.61 11.4766 30.2141 11.3979C29.8182 11.3192 29.4546 11.1248 29.1692 10.8394C28.8838 10.554 28.6894 10.1903 28.6106 9.79444C28.5319 9.39856 28.5723 8.98822 28.7268 8.61531C28.8812 8.2424 29.1428 7.92367 29.4784 7.69942C29.814 7.47518 30.2086 7.35548 30.6122 7.35548C31.1533 7.35613 31.672 7.57135 32.0546 7.95394C32.4372 8.33653 32.6524 8.85524 32.6531 9.3963Z" fill="#F9B025"/>
</svg>
