<svg width="40" height="41" viewBox="0 0 40 41" fill="none" xmlns="http://www.w3.org/2000/svg">
<path d="M40 20.0088C40 16.0534 38.8271 12.1868 36.6297 8.89792C34.4323 5.60905 31.3091 3.0456 27.6549 1.53169C24.0006 0.0177925 19.9796 -0.378572 16.1001 0.39272C12.2206 1.16401 8.65693 3.06832 5.85967 5.86486C3.06242 8.6614 1.1572 12.2246 0.384925 16.1039C-0.387355 19.9831 0.00798487 24.0043 1.52096 27.6589C3.03393 31.3135 5.59658 34.4375 8.88489 36.6357C12.1732 38.8339 16.0395 40.0078 19.9949 40.0088H20L20.0051 40.0086C25.3067 40.0013 30.389 37.8917 34.1373 34.1424C37.8856 30.3932 39.994 25.3104 40 20.0088ZM21.1765 37.6157V24.3227H26.2745C26.5865 24.3227 26.8858 24.1988 27.1064 23.9781C27.327 23.7575 27.451 23.4583 27.451 23.1462C27.451 22.8342 27.327 22.535 27.1064 22.3144C26.8858 22.0937 26.5865 21.9698 26.2745 21.9698H21.1765V16.8717C21.1775 15.936 21.5497 15.0389 22.2114 14.3772C22.873 13.7155 23.7701 13.3434 24.7059 13.3423H27.8431C28.1552 13.3423 28.4544 13.2184 28.675 12.9977C28.8957 12.7771 29.0196 12.4779 29.0196 12.1659C29.0196 11.8538 28.8957 11.5546 28.675 11.334C28.4544 11.1133 28.1552 10.9894 27.8431 10.9894H24.7059C23.1463 10.9911 21.6512 11.6115 20.5484 12.7142C19.4456 13.817 18.8253 15.3122 18.8235 16.8717V21.9698H13.7255C13.4135 21.9698 13.1142 22.0937 12.8936 22.3144C12.673 22.535 12.549 22.8342 12.549 23.1462C12.549 23.4583 12.673 23.7575 12.8936 23.9781C13.1142 24.1988 13.4135 24.3227 13.7255 24.3227H18.8235V37.6157C14.2553 37.3104 9.98458 35.2417 6.91315 31.8465C3.84172 28.4512 2.21007 23.9951 2.36277 19.4193C2.51546 14.8435 4.44056 10.5061 7.73151 7.32312C11.0225 4.14016 15.4216 2.3608 20 2.3608C24.5784 2.3608 28.9776 4.14016 32.2685 7.32312C35.5595 10.5061 37.4845 14.8435 37.6372 19.4193C37.7899 23.9951 36.1583 28.4512 33.0869 31.8465C30.0154 35.2417 25.7447 37.3104 21.1765 37.6157Z" fill="#F9B025"/>
</svg>
