<svg width="40" height="41" viewBox="0 0 40 41" fill="none" xmlns="http://www.w3.org/2000/svg">
<path d="M20 10.6122C18.1433 10.6122 16.3283 11.1628 14.7844 12.1944C13.2406 13.2259 12.0374 14.6921 11.3268 16.4075C10.6163 18.1229 10.4304 20.0104 10.7926 21.8315C11.1549 23.6525 12.049 25.3252 13.3619 26.6381C14.6748 27.951 16.3475 28.8451 18.1685 29.2074C19.9896 29.5696 21.8772 29.3837 23.5925 28.6732C25.3079 27.9626 26.7741 26.7594 27.8056 25.2156C28.8372 23.6717 29.3878 21.8567 29.3878 20C29.3849 17.5111 28.395 15.1249 26.635 13.365C24.8751 11.605 22.4889 10.6151 20 10.6122ZM20 26.9388C18.6276 26.9388 17.2861 26.5318 16.145 25.7694C15.0039 25.0069 14.1146 23.9233 13.5894 22.6554C13.0642 21.3875 12.9268 19.9923 13.1946 18.6463C13.4623 17.3003 14.1231 16.0639 15.0935 15.0935C16.0639 14.1231 17.3003 13.4623 18.6463 13.1946C19.9923 12.9268 21.3875 13.0642 22.6554 13.5894C23.9233 14.1146 25.0069 15.0039 25.7694 16.145C26.5318 17.2861 26.9388 18.6276 26.9388 20C26.9367 21.8396 26.2049 23.6033 24.9041 24.9041C23.6033 26.2049 21.8396 26.9367 20 26.9388ZM28.9796 0H11.0204C8.09864 0.00334886 5.2975 1.1655 3.2315 3.2315C1.1655 5.2975 0.00334886 8.09864 0 11.0204V28.9796C0.00334886 31.9014 1.1655 34.7025 3.2315 36.7685C5.2975 38.8345 8.09864 39.9967 11.0204 40H28.9796C31.9014 39.9967 34.7025 38.8345 36.7685 36.7685C38.8345 34.7025 39.9967 31.9014 40 28.9796V11.0204C39.9967 8.09864 38.8345 5.2975 36.7685 3.2315C34.7025 1.1655 31.9014 0.00334886 28.9796 0ZM37.551 28.9796C37.5485 31.2521 36.6446 33.4308 35.0377 35.0377C33.4308 36.6446 31.2521 37.5485 28.9796 37.551H11.0204C8.7479 37.5485 6.5692 36.6446 4.9623 35.0377C3.35539 33.4308 2.45152 31.2521 2.44898 28.9796V11.0204C2.45152 8.7479 3.35539 6.5692 4.9623 4.9623C6.5692 3.35539 8.7479 2.45152 11.0204 2.44898H28.9796C31.2521 2.45152 33.4308 3.35539 35.0377 4.9623C36.6446 6.5692 37.5485 8.7479 37.551 11.0204V28.9796ZM32.6531 9.38776C32.6531 9.79139 32.5334 10.186 32.3091 10.5216C32.0849 10.8572 31.7661 11.1188 31.3932 11.2732C31.0203 11.4277 30.61 11.4681 30.2141 11.3894C29.8182 11.3106 29.4546 11.1162 29.1692 10.8308C28.8838 10.5454 28.6894 10.1818 28.6106 9.7859C28.5319 9.39002 28.5723 8.97968 28.7268 8.60677C28.8812 8.23386 29.1428 7.91513 29.4784 7.69088C29.814 7.46663 30.2086 7.34694 30.6122 7.34694C31.1533 7.34759 31.672 7.56281 32.0546 7.9454C32.4372 8.32798 32.6524 8.8467 32.6531 9.38776Z" fill="white"/>
</svg>
