<svg width="40" height="41" viewBox="0 0 40 41" fill="none" xmlns="http://www.w3.org/2000/svg">
<path d="M20 0C16.5126 0.000938304 13.086 0.91351 10.06 2.64721C7.03411 4.38092 4.51395 6.87552 2.74949 9.88363C0.985034 12.8917 0.0375813 16.3088 0.00109518 19.7961C-0.0353909 23.2833 0.840357 26.7194 2.54149 29.7638L0.820895 35.7854C0.686325 36.2561 0.680104 36.7543 0.802876 37.2283C0.925648 37.7022 1.17295 38.1347 1.51914 38.4809C1.86532 38.8271 2.29781 39.0745 2.77176 39.1973C3.24571 39.3201 3.74388 39.3139 4.21463 39.1793L10.2364 37.4587C12.904 38.9504 15.8779 39.811 18.9299 39.9743C21.9819 40.1376 25.0307 39.5993 27.8422 38.4007C30.6537 37.2022 33.1532 35.3753 35.1486 33.0603C37.1441 30.7453 38.5825 28.0037 39.3533 25.0462C40.1242 22.0887 40.2071 18.9939 39.5955 15.9993C38.984 13.0048 37.6943 10.1903 35.8256 7.77181C33.9568 5.35336 31.5587 3.39534 28.8153 2.04809C26.0719 0.700844 23.0563 0.000214063 20 0ZM20 37.6472C16.8307 37.6493 13.7195 36.7967 10.9941 35.1791C10.8562 35.0972 10.7031 35.0443 10.5441 35.0237C10.3851 35.0031 10.2235 35.0151 10.0694 35.0591L3.56816 36.9166C3.50094 36.9358 3.42981 36.9367 3.36212 36.9192C3.29444 36.9017 3.23268 36.8664 3.18323 36.817C3.13378 36.7675 3.09846 36.7058 3.08091 36.6381C3.06337 36.5704 3.06425 36.4993 3.08345 36.4321L4.94071 29.9307C4.98475 29.7766 4.99682 29.6151 4.97619 29.4561C4.95555 29.2972 4.90264 29.1441 4.82071 29.0064C2.83303 25.6576 2.00871 21.7455 2.47615 17.8794C2.94359 14.0133 4.67655 10.4104 7.40506 7.63184C10.1336 4.85331 13.7044 3.0552 17.5614 2.51761C21.4183 1.98003 25.3448 2.73316 28.7291 4.65968C32.1134 6.5862 34.7655 9.57794 36.2724 13.1688C37.7792 16.7598 38.056 20.7482 37.0598 24.5128C36.0636 28.2775 33.8503 31.607 30.7646 33.9826C27.6789 36.3583 23.8942 37.6467 20 37.6472ZM30.0988 23.2956L26.087 21.0028C25.6635 20.7613 25.1834 20.6369 24.6959 20.6421C24.2085 20.6473 23.7311 20.7821 23.3129 21.0326L20.7943 22.5438C19.38 21.7804 18.2198 20.6201 17.4564 19.2057L18.9676 16.6871C19.2182 16.2689 19.353 15.7915 19.3581 15.304C19.3633 14.8165 19.2387 14.3364 18.997 13.913L16.7047 9.90121C16.4831 9.51463 16.1636 9.19332 15.7782 8.96969C15.3928 8.74606 14.9553 8.62802 14.5098 8.62748C12.746 8.62803 11.0542 9.32731 9.80476 10.5723C8.55532 11.8172 7.84997 13.5064 7.84307 15.2702C7.8399 17.4867 8.27373 19.682 9.11973 21.7307C9.96574 23.7793 11.2073 25.6411 12.7735 27.2095C14.3396 28.7779 16.1996 30.0221 18.2471 30.8711C20.2945 31.72 22.4892 32.157 24.7057 32.157H24.7298C26.4936 32.1501 28.1828 31.4447 29.4278 30.1953C30.6727 28.9458 31.372 27.2541 31.3726 25.4903C31.372 25.0447 31.254 24.6072 31.0304 24.2219C30.8067 23.8366 30.4854 23.517 30.0988 23.2956ZM24.7265 29.804H24.7059C22.7987 29.804 20.9102 29.428 19.1485 28.6976C17.3867 27.9671 15.7863 26.8965 14.4386 25.547C13.091 24.1974 12.0226 22.5955 11.2947 20.8327C10.5667 19.0699 10.1933 17.1809 10.196 15.2738C10.2011 14.1331 10.6579 13.041 11.4663 12.2363C12.2748 11.4317 13.3691 10.9801 14.5098 10.9804C14.5406 10.9805 14.5709 10.9886 14.5976 11.0041C14.6243 11.0196 14.6464 11.0419 14.6617 11.0687L16.9541 15.0804C16.9886 15.1409 17.0064 15.2094 17.0057 15.279C17.0049 15.3486 16.9857 15.4168 16.95 15.4765L15.1088 18.5452C15.0112 18.7079 14.9545 18.8917 14.9433 19.0811C14.9322 19.2705 14.967 19.4598 15.0449 19.6328C16.1078 21.9986 18.0016 23.8923 20.3674 24.9552C20.5404 25.033 20.7297 25.0678 20.9191 25.0567C21.1085 25.0455 21.2924 24.9887 21.4551 24.8911L24.5233 23.0503C24.5831 23.0145 24.6513 22.9953 24.7209 22.9945C24.7906 22.9937 24.8592 23.0114 24.9198 23.0458L28.9316 25.3385C28.9583 25.3538 28.9805 25.3759 28.9959 25.4026C29.0114 25.4292 29.0196 25.4595 29.0196 25.4903C29.0199 26.6309 28.5684 27.7252 27.7638 28.5336C26.9592 29.3421 25.8671 29.7989 24.7265 29.804Z" fill="white"/>
</svg>
