<svg width="40" height="40" viewBox="0 0 40 40" fill="none" xmlns="http://www.w3.org/2000/svg">
<path d="M40 20.0001C40 16.0447 38.8271 12.1781 36.6297 8.88925C34.4323 5.60038 31.3091 3.03693 27.6549 1.52303C24.0006 0.0091255 19.9796 -0.387239 16.1001 0.384053C12.2206 1.15534 8.65693 3.05965 5.85967 5.85619C3.06242 8.65273 1.1572 12.2159 0.384925 16.0952C-0.387355 19.9745 0.00798487 23.9957 1.52096 27.6503C3.03393 31.3049 5.59658 34.4288 8.88489 36.627C12.1732 38.8253 16.0395 39.9991 19.9949 40.0001H20L20.0051 39.9999C25.3067 39.9926 30.389 37.883 34.1373 34.1337C37.8856 30.3845 39.994 25.3017 40 20.0001ZM21.1765 37.607V24.314H26.2745C26.5865 24.314 26.8858 24.1901 27.1064 23.9695C27.327 23.7488 27.451 23.4496 27.451 23.1376C27.451 22.8256 27.327 22.5263 27.1064 22.3057C26.8858 22.0851 26.5865 21.9611 26.2745 21.9611H21.1765V16.8631C21.1775 15.9273 21.5497 15.0302 22.2114 14.3685C22.873 13.7069 23.7701 13.3347 24.7059 13.3337H27.8431C28.1552 13.3337 28.4544 13.2097 28.675 12.9891C28.8957 12.7684 29.0196 12.4692 29.0196 12.1572C29.0196 11.8452 28.8957 11.5459 28.675 11.3253C28.4544 11.1047 28.1552 10.9807 27.8431 10.9807H24.7059C23.1463 10.9825 21.6512 11.6028 20.5484 12.7056C19.4456 13.8083 18.8253 15.3035 18.8235 16.8631V21.9611H13.7255C13.4135 21.9611 13.1142 22.0851 12.8936 22.3057C12.673 22.5263 12.549 22.8256 12.549 23.1376C12.549 23.4496 12.673 23.7488 12.8936 23.9695C13.1142 24.1901 13.4135 24.314 13.7255 24.314H18.8235V37.607C14.2553 37.3018 9.98458 35.2331 6.91315 31.8378C3.84172 28.4425 2.21007 23.9865 2.36277 19.4106C2.51546 14.8348 4.44056 10.4974 7.73151 7.31446C11.0225 4.1315 15.4216 2.35213 20 2.35213C24.5784 2.35213 28.9776 4.1315 32.2685 7.31446C35.5595 10.4974 37.4845 14.8348 37.6372 19.4106C37.7899 23.9865 36.1583 28.4425 33.0869 31.8378C30.0154 35.2331 25.7447 37.3018 21.1765 37.607Z" fill="white"/>
</svg>
