<svg width="110" height="50" viewBox="0 0 110 50" fill="none" xmlns="http://www.w3.org/2000/svg">
<path d="M104.562 3.49945C102.871 2.29936 100.863 1.62756 98.7902 1.569C96.7178 1.51045 94.6745 2.06777 92.9188 3.17049C91.1631 4.27321 89.7738 5.87181 88.9267 7.7641C88.0796 9.6564 87.8126 11.7574 88.1595 13.8014C88.5065 15.8455 89.4518 17.7407 90.8759 19.2475C92.3 20.7543 94.139 21.8049 96.1602 22.2665C98.1814 22.7281 100.294 22.58 102.231 21.8409C104.168 21.1018 105.843 19.8048 107.043 18.1141C108.651 15.8471 109.294 13.0338 108.829 10.293C108.364 7.5523 106.829 5.10859 104.562 3.49945Z" fill="#F9B025"/>
<path fill-rule="evenodd" clip-rule="evenodd" d="M92.6467 2.73742C94.4881 1.58085 96.6311 0.996319 98.8048 1.05773C100.978 1.11914 103.085 1.82375 104.858 3.08244C107.236 4.77016 108.846 7.33318 109.333 10.2077C109.821 13.0823 109.148 16.033 107.46 18.4107C106.202 20.184 104.445 21.5443 102.414 22.3195C100.382 23.0947 98.1663 23.25 96.0463 22.7659C93.9264 22.2817 91.9977 21.1798 90.504 19.5994C89.0104 18.0191 88.0189 16.0313 87.655 13.8875C87.2912 11.7436 87.5712 9.54003 88.4597 7.55533C89.3482 5.57063 90.8053 3.89399 92.6467 2.73742ZM98.7759 2.081C96.8046 2.0253 94.8611 2.55541 93.1911 3.60429C91.5212 4.65317 90.1998 6.1737 89.394 7.97361C88.5882 9.77351 88.3343 11.7719 88.6643 13.7162C88.9943 15.6604 89.8934 17.4631 91.248 18.8963C92.6026 20.3295 94.3517 21.3288 96.2743 21.7679C98.1968 22.207 100.206 22.0661 102.049 21.3631C103.891 20.66 105.484 19.4264 106.625 17.8182C108.156 15.6619 108.767 12.986 108.324 10.3791C107.882 7.77214 106.422 5.44776 104.266 3.91719C102.658 2.77569 100.747 2.13669 98.7759 2.081Z" fill="black"/>
<path fill-rule="evenodd" clip-rule="evenodd" d="M96.7822 10.5556C97.8442 11.0634 98.7788 11.8027 99.5175 12.7192C100.256 13.6358 100.78 14.7061 101.051 15.8517C101.322 16.9973 101.332 18.189 101.082 19.3393C100.831 20.4895 100.326 21.569 99.6041 22.4984C98.1445 22.6339 96.6727 22.4652 95.2816 22.0029C93.8906 21.5405 92.6105 20.7947 91.5224 19.8124C90.4343 18.8301 89.5618 17.6328 88.9601 16.2962C88.3583 14.9595 88.0404 13.5125 88.0264 12.0467C89.1514 10.9215 90.5982 10.1736 92.1668 9.90646C93.7353 9.63933 95.3481 9.86615 96.7822 10.5556Z" fill="#BA7C11"/>
<path fill-rule="evenodd" clip-rule="evenodd" d="M96.5606 11.0179C95.2222 10.3744 93.7169 10.1627 92.2529 10.4121C90.8596 10.6494 89.5693 11.293 88.5428 12.2599C88.5839 13.5805 88.884 14.881 89.427 16.0871C89.9997 17.3592 90.8301 18.4987 91.8656 19.4335C92.9012 20.3683 94.1194 21.0782 95.4433 21.5182C96.6962 21.9346 98.0181 22.1008 99.3338 22.008C99.9381 21.1802 100.363 20.2346 100.582 19.2314C100.816 18.1559 100.806 17.0417 100.553 15.9705C100.3 14.8993 99.8099 13.8984 99.1192 13.0415C98.4285 12.1845 97.5546 11.4932 96.5616 11.0183L96.5606 11.0179ZM97.0037 10.0951C95.4742 9.35987 93.754 9.11801 92.081 9.40293C90.4079 9.68787 88.8646 10.4856 87.6646 11.6859L87.5127 11.8378L87.5147 12.0526C87.5294 13.5892 87.8627 15.1061 88.4936 16.5073C89.1244 17.9085 90.039 19.1636 91.1797 20.1934C92.3203 21.2231 93.6621 22.0049 95.1204 22.4896C96.5786 22.9743 98.1215 23.1512 99.6516 23.0091L99.8724 22.9886L100.008 22.8135C100.778 21.8237 101.315 20.6741 101.582 19.4492C101.849 18.2242 101.837 16.9551 101.549 15.7351C101.261 14.5151 100.703 13.3751 99.9163 12.3991C99.1297 11.4232 98.1344 10.6359 97.0037 10.0951Z" fill="black"/>
<path fill-rule="evenodd" clip-rule="evenodd" d="M105.309 4.08963C103.921 2.91677 102.255 2.12014 100.471 1.77612V1.79319C100.32 2.11047 100.233 2.45449 100.215 2.80546C100.198 3.15642 100.25 3.5074 100.368 3.83818C100.487 4.16896 100.67 4.47301 100.906 4.73284C101.143 4.99267 101.429 5.20315 101.747 5.35216C102.387 5.65178 103.12 5.68731 103.787 5.45107C104.453 5.21483 105 4.72578 105.309 4.08963Z" fill="#BA7C11"/>
<path fill-rule="evenodd" clip-rule="evenodd" d="M99.9589 1.1564L100.568 1.27376C102.438 1.63438 104.185 2.46944 105.64 3.69889L105.944 3.95563L105.77 4.31345C105.402 5.07055 104.751 5.65257 103.958 5.93373C103.165 6.21488 102.292 6.1726 101.53 5.81601L101.53 5.81592C101.151 5.63829 100.81 5.38739 100.528 5.07766C100.246 4.76792 100.028 4.40547 99.8866 4.01116C99.7453 3.61686 99.6832 3.19847 99.7042 2.7801C99.7231 2.40185 99.8095 2.03038 99.9589 1.68311V1.1564ZM100.8 2.37071C100.759 2.52075 100.734 2.67516 100.727 2.83126C100.712 3.11481 100.754 3.39838 100.85 3.66563C100.946 3.93289 101.094 4.17854 101.285 4.38847C101.476 4.59834 101.707 4.76836 101.964 4.88875M100.8 2.37071C102.197 2.7031 103.507 3.3296 104.642 4.2083C104.385 4.55614 104.029 4.82244 103.616 4.96886C103.076 5.16016 102.483 5.13142 101.964 4.88884" fill="black"/>
<path d="M107.414 8.09888C107.515 7.88651 107.55 7.64913 107.515 7.41676C107.481 7.18439 107.378 6.96749 107.22 6.79348C107.063 6.61947 106.857 6.49619 106.629 6.43922C106.401 6.38225 106.161 6.39417 105.94 6.47345C105.719 6.55273 105.526 6.69582 105.386 6.88462C105.247 7.07342 105.166 7.29944 105.155 7.53408C105.143 7.76873 105.202 8.00145 105.323 8.20282C105.444 8.40418 105.622 8.56514 105.834 8.66532C106.119 8.79858 106.445 8.81382 106.741 8.70771C107.037 8.60159 107.279 8.38274 107.414 8.09888Z" fill="#BA7C11"/>
<path fill-rule="evenodd" clip-rule="evenodd" d="M105.767 5.99161C106.084 5.87815 106.427 5.86111 106.753 5.94263C107.079 6.02415 107.374 6.20057 107.6 6.44958C107.825 6.69859 107.972 7.009 108.022 7.34152C108.071 7.67403 108.021 8.01374 107.877 8.31766L107.414 8.09885L107.876 8.31898C107.683 8.72484 107.337 9.03776 106.914 9.18948C106.491 9.3412 106.025 9.31942 105.618 9.12887L105.616 9.12825C105.312 8.98488 105.057 8.75455 104.884 8.46639C104.711 8.17824 104.627 7.8452 104.644 7.50941C104.66 7.17363 104.775 6.85019 104.975 6.58001C105.175 6.30983 105.451 6.10507 105.767 5.99161ZM106.952 7.87939C107.009 7.75873 107.029 7.62392 107.009 7.49193C106.99 7.35972 106.931 7.23631 106.841 7.13731C106.752 7.0383 106.634 6.96816 106.505 6.93575C106.375 6.90334 106.239 6.91011 106.113 6.95522C105.987 7.00033 105.877 7.08175 105.798 7.18916C105.718 7.29658 105.672 7.42518 105.666 7.55868C105.66 7.69219 105.693 7.8246 105.762 7.93917C105.83 8.05353 105.932 8.14499 106.052 8.20201C106.214 8.27771 106.4 8.28629 106.568 8.22587C106.737 8.16544 106.875 8.04091 106.952 7.87939Z" fill="black"/>
<path d="M25.3121 0.978149V23.3113H19.8729V9.91824L14.8638 23.3113H10.4858L5.4596 9.88411V23.3113H0V0.978149H6.42867L12.714 16.4493L18.9175 0.988386L25.3121 0.978149Z" fill="white"/>
<path d="M33.6308 0.977509V14.3399C33.6308 15.6741 33.972 16.7046 34.6169 17.4109C35.2618 18.1172 36.2411 18.4926 37.5139 18.4926C38.7867 18.4926 39.7626 18.1514 40.4416 17.4109C41.1207 16.6704 41.4653 15.6604 41.4653 14.3399V0.977509H46.9249V14.3092C46.981 16.0806 46.5401 17.8323 45.6521 19.3661C44.8186 20.7247 43.605 21.8091 42.1614 22.4849C40.6707 23.1722 39.0496 23.5306 37.4081 23.5359C35.7666 23.5412 34.1432 23.1932 32.648 22.5156C31.2725 21.8205 30.132 20.7359 29.3689 19.3968C28.5276 17.8364 28.1143 16.081 28.1712 14.3092V0.977509H33.6308Z" fill="white"/>
<path d="M69.7287 23.3107H64.2896L55.1891 9.53543V23.3107H49.7295V0.977509H55.1891L64.2896 14.8176V0.977509H69.7287V23.3107Z" fill="white"/>
<path d="M81.0846 0.977877C83.2262 0.927168 85.3469 1.40782 87.2574 2.3769C88.972 3.26497 90.3885 4.63643 91.3316 6.32146C92.2924 8.11197 92.7953 10.1124 92.7953 12.1445C92.7953 14.1765 92.2924 16.1769 91.3316 17.9675C90.3852 19.6571 88.9606 21.0293 87.2369 21.912C85.3365 22.8786 83.2263 23.3592 81.0948 23.311H72.7178V0.977877H81.0846ZM80.7434 18.6021C82.7907 18.6021 84.3922 18.0403 85.5478 16.9165C86.7034 15.7927 87.2722 14.2003 87.254 12.1393C87.254 10.092 86.6852 8.49165 85.5478 7.33831C84.4104 6.18497 82.8089 5.61626 80.7434 5.63218H78.1603V18.5987L80.7434 18.6021Z" fill="white"/>
<path d="M8.38002 26.4675C10.5219 26.4178 12.6426 26.8997 14.5528 27.8699C16.2622 28.7569 17.6749 30.1245 18.6168 31.8042C19.618 33.5782 20.1236 35.5889 20.0806 37.6255C20.1202 39.6661 19.6149 41.6803 18.6168 43.4605C17.6694 45.1493 16.2451 46.5214 14.5221 47.405C12.6211 48.37 10.5113 48.8505 8.38002 48.8041H0.0166016V26.4675H8.38002ZM8.0388 44.0883C10.0861 44.0883 11.6876 43.5264 12.8432 42.4027C13.9989 41.2789 14.5676 39.6865 14.5494 37.6255C14.5494 35.5782 13.9807 33.9767 12.8432 32.8211C11.7058 31.6655 10.1043 31.099 8.0388 31.1218H5.46255V44.0883H8.0388Z" fill="white"/>
<path d="M36.0841 44.8593H27.748L26.4104 48.8038H20.7153L28.7989 26.4673H35.098L43.185 48.8038H37.4183L36.0841 44.8593ZM34.6851 40.6759L31.9246 32.4865L29.1948 40.6759H34.6851Z" fill="white"/>
<path d="M55.9132 44.6034H63.0414V48.8038H50.4707V26.4673H55.9303L55.9132 44.6034Z" fill="white"/>
<path d="M70.0259 26.4673V39.833C70.0259 41.1672 70.3671 42.1977 71.012 42.9041C71.657 43.6104 72.6329 43.9857 73.9056 43.9857C75.1784 43.9857 76.1543 43.624 76.8333 42.9041C77.5124 42.1841 77.857 41.1536 77.857 39.833V26.4673H83.2961V39.7989C83.2961 41.7939 82.8719 43.4807 82.0234 44.8593C81.2054 46.2107 80.0114 47.2945 78.5872 47.9781C77.0959 48.6632 75.475 49.0204 73.8339 49.0257C72.1928 49.031 70.5696 48.6842 69.0739 48.0088C67.6996 47.3132 66.5603 46.2285 65.7981 44.89C64.9501 43.3304 64.5321 41.5733 64.5868 39.7989V26.4673H70.0259Z" fill="white"/>
<path d="M100.064 44.8593H91.728L90.3904 48.8038H84.6953L92.7755 26.4673H99.0779L107.158 48.8038H101.398L100.064 44.8593ZM98.6616 40.6759L95.8943 32.4865L93.1645 40.6759H98.6616Z" fill="white"/>
</svg>
