<svg width="165" height="201" viewBox="0 0 165 201" fill="none" xmlns="http://www.w3.org/2000/svg">
<path d="M27.3513 117.045L33.4823 130.904L23.3819 135.865C22.977 136.062 22.5149 136.11 22.0778 136C21.6407 135.89 21.2571 135.63 20.9953 135.266C20.0934 134.006 18.7529 133.124 17.2332 132.789C15.7135 132.455 14.1228 132.692 12.7691 133.455L8.6748 135.758C8.77765 133.488 9.35905 131.265 10.3814 129.233C11.4038 127.2 12.8444 125.403 14.6101 123.958L15.3807 123.325C15.7665 123.006 16.1853 122.729 16.6302 122.498L27.3513 117.045Z" fill="#EA525F"/>
<path d="M28.2759 120.195L31.5705 127.638L26.1559 130.296C25.9389 130.402 25.691 130.428 25.4566 130.369C25.2223 130.31 25.0168 130.17 24.8772 129.974C24.3917 129.298 23.6715 128.825 22.8554 128.646C22.0394 128.466 21.1853 128.593 20.458 129.002L18.2588 130.242C18.3144 129.023 18.627 127.829 19.1766 126.737C19.7262 125.645 20.5004 124.68 21.4493 123.904L21.8658 123.565C22.0717 123.397 22.2952 123.252 22.5322 123.131L28.2759 120.195Z" fill="#F9B025"/>
<path d="M79.999 72.524C72.6684 75.4554 64.6838 63.9034 73.9929 61.555L81.3527 60.9762C83.3728 60.7198 84.1808 63.9655 84.5015 66.9506C84.7931 69.6877 82.723 72.0072 79.999 72.524Z" fill="#EA525F"/>
<path d="M103.911 72.805C102.622 68.0358 99.9573 63.7442 96.245 60.4574C92.5328 57.1705 87.9343 55.0314 83.0143 54.3029C82.0563 52.9467 80.9317 52.1984 79.6822 52.0785C78.1411 51.9338 76.5084 52.7111 74.8173 54.3897C72.4353 54.7985 70.1241 55.5419 67.9532 56.5976C50.922 55.8244 46.8026 51.3508 46.7652 51.3095L46.3986 50.896L45.9321 51.2185C42.4126 53.6248 40.8173 56.0187 41.1922 58.3299C42.0252 63.5932 52.9504 66.752 59.4688 68.6374C60.3018 68.8855 61.089 69.1087 61.7305 69.3072C63.0592 72.8547 62.2844 76.3153 61.4597 79.9744C60.9849 82.0954 60.4934 84.2908 60.4518 86.4987V86.5525C60.735 91.1005 63.0508 95.9627 68.6779 96.0206C71.052 96.8475 71.456 98.2863 71.8184 99.5722C72.1225 100.672 72.5015 102.02 74.3508 102.02C74.4841 102.02 74.6257 102.02 74.7673 101.999H74.8548C80.5652 100.622 84.1181 98.3194 85.4218 95.1482C86.5547 92.3822 85.9757 89.0332 83.6932 85.1757L91.1904 81.7936L91.2279 81.4421C91.7403 76.5923 90.3241 72.1146 88.9538 67.7981C88.6289 66.7727 88.2999 65.7308 87.9958 64.6848C91.4124 67.4467 94.0047 71.0821 95.493 75.199L95.6888 75.7364L104.082 73.4004L103.911 72.805ZM96.4468 74.186C94.6445 69.5423 91.5056 65.5277 87.421 62.6423C87.0845 61.7827 86.6893 60.947 86.2381 60.1409C86.1556 60.0009 86.0211 59.8985 85.8634 59.8558C85.7058 59.8131 85.5375 59.8334 85.3948 59.9124C85.252 59.9913 85.1461 60.1227 85.0998 60.2782C85.0534 60.4338 85.0703 60.6012 85.1468 60.7445C85.5903 61.5437 85.9773 62.3727 86.3048 63.2253C86.7213 64.8791 87.2419 66.5329 87.7459 68.1247C89.0454 72.2303 90.3866 76.4724 90.0034 80.9419L82.9727 84.1131C82.2896 82.9885 80.4486 80.8054 76.4334 80.8054C76.2677 80.8054 76.1088 80.8708 75.9916 80.9871C75.8744 81.1034 75.8086 81.2611 75.8086 81.4256C75.8086 81.5901 75.8744 81.7478 75.9916 81.8641C76.1088 81.9804 76.2677 82.0458 76.4334 82.0458C80.8318 82.0458 82.0855 85.0723 82.1396 85.2087C82.1978 85.3472 82.3043 85.4602 82.4395 85.5271C84.6387 89.1448 85.251 92.2168 84.2472 94.6645C83.1059 97.4346 79.8571 99.4895 74.5882 100.767C73.4553 100.87 73.3387 100.449 73.0013 99.2414C72.5848 97.8026 72.0433 95.8304 68.9611 94.8133L68.8653 94.7802H68.7654C62.6968 94.7802 61.8055 88.475 61.6847 86.5111C61.7263 84.4438 62.2011 82.3104 62.6635 80.2555C63.4632 76.6957 64.2879 73.02 63.0133 69.2535L63.8464 68.7035L62.5968 68.2901C61.8513 68.0503 60.8891 67.7691 59.777 67.4632C53.9458 65.7763 43.1165 62.6381 42.3834 58.148C42.1044 56.4322 43.3831 54.5468 46.1862 52.5457C47.6065 53.7447 52.9712 57.2219 68.0156 57.8793H68.1781L68.3197 57.809C70.4825 56.739 72.795 55.9975 75.1797 55.6094L75.3796 55.5763L75.5254 55.4316C76.5334 54.4021 78.0245 53.2031 79.5198 53.3643C80.4569 53.4553 81.3232 54.092 82.1021 55.2662L82.2562 55.5019L82.5353 55.5391C87.1623 56.1739 91.5069 58.119 95.0489 61.1416C98.591 64.1642 101.18 68.1361 102.507 72.5818L96.4468 74.186Z" fill="#0A0A0A"/>
<path d="M82.968 60.8355C82.738 60.6471 82.4714 60.5076 82.1848 60.4258C81.8981 60.344 81.5976 60.3216 81.3019 60.36L74.2212 60.9141L74.1712 60.8727L73.8422 60.9554C70.6392 61.7823 69.5938 63.5106 69.2814 64.8378C68.7732 66.996 69.877 69.6049 72.0887 71.4903C73.592 72.825 75.5284 73.5792 77.545 73.6154C78.4475 73.617 79.3422 73.4486 80.1815 73.1193C83.3137 72.495 85.4379 69.8116 85.1255 66.8844C84.7798 63.6842 84.0884 61.7079 82.968 60.8355ZM79.8816 71.9161L79.765 71.9492C77.5408 72.8381 74.9709 72.3131 72.8967 70.5476C71.064 68.9847 70.0977 66.8058 70.4976 65.1189C70.8308 63.7008 72.0928 62.6754 74.1462 62.1544V62.1338C74.6336 62.1338 75.6165 62.0511 77.7241 61.8857L81.4352 61.5921C81.5697 61.5725 81.7068 61.5816 81.8375 61.6186C81.9682 61.6557 82.0895 61.72 82.1933 61.8071C82.6556 62.171 83.4886 63.3287 83.8593 67.0167C84.1217 69.3279 82.4224 71.4365 79.8816 71.9161Z" fill="#0A0A0A"/>
<path d="M95.0852 33.2502C94.6354 6.32909 54.2791 6.33356 53.8203 33.2502C54.2746 60.1712 94.6264 60.1668 95.0852 33.2502Z" fill="#1D1D1B"/>
<path d="M102.041 94.607C100.791 93.4245 98.9418 93.0772 96.5302 93.5733L94.206 87.8594L82.4229 92.7795L82.6686 93.3542C84.1722 96.8934 85.1302 99.6387 85.9007 101.847C87.1503 105.423 87.775 107.222 89.2328 107.792C89.5378 107.911 89.8632 107.97 90.1908 107.966C91.6736 107.966 93.7062 106.911 97.3382 105.018C98.9168 104.191 100.879 103.178 103.207 102.029L103.482 101.892L103.544 101.594C103.569 101.404 104.452 96.8934 102.041 94.607Z" fill="#0A0A0A"/>
<path d="M139.418 80.9417L37.789 132.21C37.3614 132.43 36.8941 132.564 36.4142 132.604C35.9343 132.644 35.4512 132.589 34.9927 132.442C34.5343 132.296 34.1095 132.061 33.7431 131.751C33.3766 131.44 33.0756 131.061 32.8575 130.635L26.4432 118.107C26.2252 117.683 26.0937 117.22 26.0561 116.745C26.0186 116.27 26.0757 115.792 26.2242 115.339C26.3728 114.886 26.6098 114.466 26.9218 114.104C27.2338 113.742 27.6147 113.444 28.0426 113.229L129.672 61.96C129.807 61.8916 129.954 61.8505 130.105 61.8389C130.256 61.8272 130.408 61.8454 130.552 61.8923C130.696 61.9392 130.829 62.0138 130.944 62.112C131.059 62.2102 131.153 62.3299 131.221 62.4644C131.638 63.2086 132.762 72.0524 133.57 72.346L139.922 79.4202C140.054 79.6891 140.075 79.9984 139.981 80.2825C139.887 80.5665 139.685 80.803 139.418 80.9417Z" fill="#F9B025"/>
<path d="M41.9705 105.848L26.6095 114.043L25.6807 116.557C26.447 119.976 31.9908 129.085 33.8277 132.169L36.7766 132.62L50.6548 125.537C50.0634 116.532 47.7809 112.216 41.908 105.501" fill="#EA525F"/>
<path d="M139.484 80.5325C158.527 55.659 167.053 58.3878 130.892 61.1828C130.736 61.195 130.584 61.2416 130.449 61.3192C130.313 61.3968 130.196 61.5034 130.107 61.6313C130.019 61.7592 129.959 61.9051 129.934 62.0586C129.909 62.212 129.919 62.369 129.963 62.5183L132.345 71.5647C132.758 71.6226 138.868 82.145 139.484 80.5325Z" fill="#BA7C11"/>
<path d="M156.387 59.868C155.621 58.3548 152.418 58.6525 142.909 59.5249C139.664 59.8226 135.624 60.1947 130.855 60.5627C130.621 60.5822 130.394 60.6505 130.189 60.763C129.984 60.8756 129.805 61.0299 129.663 61.2159C129.441 61.2323 129.225 61.2927 129.026 61.3937L27.397 112.662C26.5353 113.095 25.8465 113.805 25.4427 114.675C25.0388 115.546 24.9437 116.527 25.1728 117.458L16.3428 121.953C15.858 122.2 15.4014 122.498 14.9808 122.842L14.2144 123.47C12.3815 124.971 10.886 126.837 9.82425 128.947C8.76249 131.057 8.15807 133.365 8.04998 135.721L8 136.841L13.0773 133.997C14.2963 133.307 15.7299 133.093 17.0994 133.395C18.4689 133.697 19.6764 134.493 20.4871 135.63C20.8313 136.118 21.341 136.467 21.923 136.612C22.505 136.758 23.1204 136.691 23.6567 136.424L32.7034 131.991C33.1025 132.391 33.5774 132.709 34.1006 132.926C34.6238 133.143 35.1852 133.256 35.7523 133.257C36.4227 133.258 37.0839 133.101 37.6807 132.798L139.31 81.529C139.464 81.4446 139.605 81.3373 139.726 81.2106C139.849 81.1302 139.948 81.019 140.014 80.8882C144.679 74.7979 148.682 70.407 151.601 67.1945C155.466 62.9442 157.053 61.1994 156.387 59.868ZM23.1028 135.291C22.8316 135.426 22.5202 135.458 22.2267 135.382C21.9332 135.306 21.6775 135.127 21.5075 134.877C20.5158 133.488 19.0384 132.516 17.3634 132.15C15.6884 131.783 13.9361 132.05 12.4484 132.897L9.37449 134.625C9.85731 130.632 11.8692 126.977 14.9932 124.417L15.7596 123.788C16.1113 123.503 16.4925 123.255 16.8967 123.048L25.6143 118.612L26.5182 120.381L22.2073 122.573C21.928 122.714 21.6653 122.886 21.4242 123.085L21.0077 123.425C19.9928 124.256 19.1646 125.289 18.5764 126.458C17.9881 127.627 17.6529 128.904 17.5923 130.209L17.5423 131.33L20.7245 129.54C21.3174 129.206 22.0142 129.102 22.6797 129.249C23.3453 129.395 23.9324 129.782 24.3273 130.333C24.5529 130.655 24.8881 130.884 25.271 130.979C25.6539 131.074 26.0584 131.028 26.4099 130.85L30.7916 128.704L31.9245 130.916L31.9495 130.954L23.1028 135.291ZM27.1013 121.485L30.2293 127.596L25.8601 129.738C25.7762 129.78 25.68 129.79 25.5891 129.767C25.4981 129.745 25.4184 129.69 25.3644 129.614C24.7902 128.813 23.9371 128.251 22.97 128.038C22.003 127.825 20.9906 127.976 20.1289 128.46L19.0001 129.097C19.3621 127.247 20.3603 125.58 21.8241 124.38L22.2406 124.041C22.4131 123.9 22.6002 123.778 22.7987 123.677L27.1013 121.485ZM37.0976 131.673C36.3815 132.032 35.5512 132.095 34.7884 131.848C34.0257 131.601 33.3928 131.064 33.0283 130.354L26.614 117.826C26.2504 117.116 26.1856 116.291 26.4339 115.533C26.6822 114.775 27.2233 114.145 27.9385 113.783L42.0999 106.63C47.1731 112.497 49.4514 116.631 50.0762 125.132L37.0976 131.673ZM43.2578 106.039L129.364 62.6175C129.364 62.6175 129.364 62.6547 129.364 62.6754L131.834 72.1022L131.913 72.2262C132.179 72.5653 132.983 73.4956 133.579 74.4093C135.915 77.9692 137.244 79.8297 138.16 80.6938L51.2882 124.52C50.5843 116.177 48.1769 111.798 43.2703 106.055L43.2578 106.039ZM150.681 66.3138C147.765 69.514 143.787 73.8842 139.139 79.9579C138.173 79.1599 135.807 75.5463 134.62 73.7354C134.086 72.8674 133.508 72.027 132.887 71.2174L130.559 62.3488C130.54 62.2878 130.535 62.2232 130.545 62.1601C130.555 62.0969 130.58 62.037 130.617 61.9849C130.653 61.9327 130.7 61.8892 130.754 61.8576C130.809 61.8261 130.871 61.8074 130.934 61.803C135.715 61.435 139.756 61.0629 143.013 60.7652C149.639 60.1533 154.875 59.6737 155.254 60.4303C155.554 60.9968 153.084 63.709 150.697 66.3304L150.681 66.3138Z" fill="#0A0A0A"/>
<path d="M155.563 59.5086L146.225 59.9882L146.741 63.8871L150.206 67.509L150.473 67.4511L155.996 60.3396C156.062 60.2634 156.104 60.1692 156.115 60.0693C156.127 59.9694 156.109 59.8683 156.062 59.779C156.015 59.6896 155.943 59.6161 155.854 59.568C155.765 59.5198 155.664 59.4991 155.563 59.5086Z" fill="#1D1D1B"/>
<path d="M73.6963 99.1386C81.1435 116.632 75.7081 116.206 93.3849 107.499C93.3849 107.499 95.28 98.1752 86.6165 100.321L84.3299 94.7188L73.6963 99.1386Z" fill="#CECDCC"/>
<path d="M80.6439 113.994C80.3164 113.996 79.9914 113.938 79.686 113.82C78.2282 113.245 77.6034 111.451 76.3539 107.875C75.5833 105.667 74.6253 102.913 73.1217 99.3823L72.876 98.8076L84.6716 93.8916L87.0041 99.5973C89.4157 99.1053 91.2692 99.4526 92.5146 100.635C94.9262 102.921 94.0432 107.432 94.0057 107.622L93.9432 107.92L93.6683 108.057C91.34 109.202 89.3741 110.223 87.7996 111.046C84.1593 112.935 82.1267 113.994 80.6439 113.994ZM74.5087 99.4733C75.8999 102.781 76.837 105.473 77.5326 107.465C78.5822 110.484 79.2195 112.303 80.1441 112.667C81.1896 113.08 83.3263 111.968 87.2249 109.946C88.7451 109.156 90.6153 108.181 92.8353 107.085C92.9727 106.126 93.2518 103.058 91.6607 101.532C90.6528 100.577 89.0117 100.37 86.7833 100.924L86.2544 101.053L84.0052 95.5165L74.5087 99.4733Z" fill="#0A0A0A"/>
<path d="M96.0596 74.9343L103.311 72.9663C102.029 68.275 99.3881 64.0603 95.7158 60.8449C92.0434 57.6294 87.5011 55.5546 82.6521 54.8776C80.1238 51.0531 77.0499 52.9881 75.1048 54.9685C72.6613 55.368 70.2916 56.1275 68.0741 57.2219C50.2848 56.4446 46.2738 51.7188 46.2738 51.7188C31.8541 61.5797 55.9369 66.7603 62.4303 68.873L62.2637 68.9805C64.5462 74.9095 61.1725 80.64 61.0642 86.5028C61.3016 90.3066 63.0926 95.3921 68.7738 95.3921C73.9886 97.1121 71.0897 101.726 74.7008 101.371C86.6506 98.4765 87.2629 91.9935 82.7853 84.8738L90.6033 81.3512C91.2864 74.8599 88.4208 69.0467 86.9088 63.0474C91.1147 65.9847 94.3092 70.1344 96.0596 74.9343Z" fill="#F5F2FA"/>
<path d="M79.999 72.524C72.6684 75.4554 64.6838 63.9034 73.9929 61.555L81.3527 60.9762C83.3728 60.7198 84.1808 63.9655 84.5015 66.9506C84.7931 69.6877 82.723 72.0072 79.999 72.524Z" fill="#EA525F"/>
<path d="M103.911 72.805C102.622 68.0358 99.9573 63.7442 96.245 60.4574C92.5328 57.1705 87.9343 55.0314 83.0143 54.3029C82.0563 52.9467 80.9317 52.1984 79.6822 52.0785C78.1411 51.9338 76.5084 52.7111 74.8173 54.3897C72.4353 54.7985 70.1241 55.5419 67.9532 56.5976C50.922 55.8244 46.8026 51.3508 46.7652 51.3095L46.3986 50.896L45.9321 51.2185C42.4126 53.6248 40.8173 56.0187 41.1922 58.3299C42.0252 63.5932 52.9504 66.752 59.4688 68.6374C60.3018 68.8855 61.089 69.1087 61.7305 69.3072C63.0592 72.8547 62.2844 76.3153 61.4597 79.9744C60.9849 82.0954 60.4934 84.2908 60.4518 86.4987V86.5525C60.735 91.1005 63.0508 95.9627 68.6779 96.0206C71.052 96.8475 71.456 98.2863 71.8184 99.5722C72.1225 100.672 72.5015 102.02 74.3508 102.02C74.4841 102.02 74.6257 102.02 74.7673 101.999H74.8548C80.5652 100.622 84.1181 98.3194 85.4218 95.1482C86.5547 92.3822 85.9757 89.0332 83.6932 85.1757L91.1904 81.7936L91.2279 81.4421C91.7403 76.5923 90.3241 72.1146 88.9538 67.7981C88.6289 66.7727 88.2999 65.7308 87.9958 64.6848C91.4124 67.4467 94.0047 71.0821 95.493 75.199L95.6888 75.7364L104.082 73.4004L103.911 72.805ZM96.4468 74.186C94.6445 69.5423 91.5056 65.5277 87.421 62.6423C87.0845 61.7827 86.6893 60.947 86.2381 60.1409C86.1556 60.0009 86.0211 59.8985 85.8634 59.8558C85.7058 59.8131 85.5375 59.8334 85.3948 59.9124C85.252 59.9913 85.1461 60.1227 85.0998 60.2782C85.0534 60.4338 85.0703 60.6012 85.1468 60.7445C85.5903 61.5437 85.9773 62.3727 86.3048 63.2253C86.7213 64.8791 87.2419 66.5329 87.7459 68.1247C89.0454 72.2303 90.3866 76.4724 90.0034 80.9419L82.9727 84.1131C82.2896 82.9885 80.4486 80.8054 76.4334 80.8054C76.2677 80.8054 76.1088 80.8708 75.9916 80.9871C75.8744 81.1034 75.8086 81.2611 75.8086 81.4256C75.8086 81.5901 75.8744 81.7478 75.9916 81.8641C76.1088 81.9804 76.2677 82.0458 76.4334 82.0458C80.8318 82.0458 82.0855 85.0723 82.1396 85.2087C82.1978 85.3472 82.3043 85.4602 82.4395 85.5271C84.6387 89.1448 85.251 92.2168 84.2472 94.6645C83.1059 97.4346 79.8571 99.4895 74.5882 100.767C73.4553 100.87 73.3387 100.449 73.0013 99.2414C72.5848 97.8026 72.0433 95.8304 68.9611 94.8133L68.8653 94.7802H68.7654C62.6968 94.7802 61.8055 88.475 61.6847 86.5111C61.7263 84.4438 62.2011 82.3104 62.6635 80.2555C63.4632 76.6957 64.2879 73.02 63.0133 69.2535L63.8464 68.7035L62.5968 68.2901C61.8513 68.0503 60.8891 67.7691 59.777 67.4632C53.9458 65.7763 43.1165 62.6381 42.3834 58.148C42.1044 56.4322 43.3831 54.5468 46.1862 52.5457C47.6065 53.7447 52.9712 57.2219 68.0156 57.8793H68.1781L68.3197 57.809C70.4825 56.739 72.795 55.9975 75.1797 55.6094L75.3796 55.5763L75.5254 55.4316C76.5334 54.4021 78.0245 53.2031 79.5198 53.3643C80.4569 53.4553 81.3232 54.092 82.1021 55.2662L82.2562 55.5019L82.5353 55.5391C87.1623 56.1739 91.5069 58.119 95.0489 61.1416C98.591 64.1642 101.18 68.1361 102.507 72.5818L96.4468 74.186Z" fill="#0A0A0A"/>
<path d="M82.968 60.8355C82.738 60.6471 82.4714 60.5076 82.1848 60.4258C81.8981 60.344 81.5976 60.3216 81.3019 60.36L74.2212 60.9141L74.1712 60.8727L73.8422 60.9554C70.6392 61.7823 69.5938 63.5106 69.2814 64.8378C68.7732 66.996 69.877 69.6049 72.0887 71.4903C73.592 72.825 75.5284 73.5792 77.545 73.6154C78.4475 73.617 79.3422 73.4486 80.1815 73.1193C83.3137 72.495 85.4379 69.8116 85.1255 66.8844C84.7798 63.6842 84.0884 61.7079 82.968 60.8355ZM79.8816 71.9161L79.765 71.9492C77.5408 72.8381 74.9709 72.3131 72.8967 70.5476C71.064 68.9847 70.0977 66.8058 70.4976 65.1189C70.8308 63.7008 72.0928 62.6754 74.1462 62.1544V62.1338C74.6336 62.1338 75.6165 62.0511 77.7241 61.8857L81.4352 61.5921C81.5697 61.5725 81.7068 61.5816 81.8375 61.6186C81.9682 61.6557 82.0895 61.72 82.1933 61.8071C82.6556 62.171 83.4886 63.3287 83.8593 67.0167C84.1217 69.3279 82.4224 71.4365 79.8816 71.9161Z" fill="#0A0A0A"/>
<path d="M96.255 33.0765C95.6969 0.467218 46.8316 0.471354 46.2734 33.0765C46.8357 65.6858 95.7011 65.6817 96.255 33.0765Z" fill="#F5F2FA"/>
<path d="M71.2682 58.1522C59.1351 58.1522 45.9442 50.2966 45.6484 33.0885C45.9442 15.8433 59.131 8 71.264 8C83.397 8 96.5839 15.8557 96.8796 33.0637V33.0844C96.5839 50.3048 83.397 58.1481 71.2682 58.1522ZM71.2682 9.24037C59.7307 9.24037 47.1812 16.7033 46.9021 33.0885C47.1854 49.449 59.7307 56.9119 71.2682 56.9119C82.8014 56.9119 95.3468 49.449 95.63 33.0761C95.3343 16.6991 82.8014 9.24037 71.264 9.24037H71.2682Z" fill="#0A0A0A"/>
<path d="M95.0852 33.2502C94.6354 6.32909 54.2791 6.33356 53.8203 33.2502C54.2746 60.1712 94.6264 60.1668 95.0852 33.2502Z" fill="#1D1D1B"/>
<path d="M69.66 20.6641C81.5347 20.6228 87.695 29.2061 90.6481 38.1451C93.6678 28.6604 86.2247 18.2289 76.1742 17.9146C73.6751 17.0919 61.3089 21.5365 69.66 20.6641Z" fill="#F6F6F6"/>
<path d="M110.137 31.1488L109.871 33.7743L105.114 37.0819C104.914 37.2225 104.771 37.4285 104.709 37.6638C104.647 37.899 104.67 38.1485 104.775 38.3682C104.88 38.588 105.06 38.7639 105.283 38.8652C105.505 38.9664 105.757 38.9865 105.993 38.9218L112.02 37.2473C114.798 39.4138 116.068 38.529 115.706 35.1469C118.039 33.1665 116.906 31.3927 114.04 31.86C113.111 31.3969 110.587 28.941 110.137 31.1488Z" fill="#F9B025"/>
<path d="M105.694 39.5918C105.341 39.5884 104.998 39.4736 104.714 39.2642C104.431 39.0547 104.223 38.7613 104.118 38.4264C104.014 38.0915 104.02 37.7323 104.134 37.4008C104.249 37.0692 104.467 36.7824 104.757 36.5818L109.28 33.4313L109.526 31.025C109.555 30.7443 109.658 30.4762 109.824 30.247C109.989 30.0179 110.213 29.8357 110.471 29.7184C111.458 29.3298 112.658 30.1733 113.624 30.8513C113.82 30.9878 114.007 31.1201 114.153 31.2152C115.765 31.0084 116.977 31.4384 117.423 32.3894C117.623 32.8235 117.906 33.9564 116.356 35.3993C116.506 37.2434 116.165 38.3721 115.307 38.8393C114.449 39.3065 113.345 39.0047 111.891 37.9256L106.164 39.5256C106.012 39.5702 105.853 39.5925 105.694 39.5918ZM110.746 31.2441L110.459 34.1383L105.46 37.6155C105.375 37.6663 105.312 37.7483 105.287 37.8441C105.261 37.9398 105.274 38.0418 105.323 38.1282C105.36 38.22 105.431 38.2942 105.522 38.3357C105.613 38.3772 105.716 38.3828 105.81 38.3514L112.145 36.5818L112.395 36.7761C113.645 37.7519 114.403 37.9297 114.69 37.7726C114.978 37.6155 115.244 36.8547 115.074 35.2298L115.036 34.9073L115.286 34.6923C116.244 33.8654 116.419 33.2328 116.277 32.931C116.136 32.6292 115.361 32.286 114.12 32.4886L113.92 32.5217L113.737 32.4307C113.447 32.2656 113.169 32.0819 112.904 31.8808C112.42 31.5418 111.292 30.748 110.938 30.8885C110.892 30.8885 110.813 30.9836 110.746 31.2441Z" fill="#0A0A0A"/>
<path d="M39.3719 79.7386L39.1095 82.3641L34.3488 85.6717C34.1456 85.8111 33.999 86.0175 33.935 86.2543C33.871 86.491 33.8938 86.7426 33.9994 86.9642C34.105 87.1857 34.2865 87.3628 34.5115 87.4639C34.7364 87.5649 34.9903 87.5833 35.2276 87.5158L41.2587 85.8289C44.0327 87.9995 45.3031 87.1106 44.9407 83.7326C47.2732 81.7522 46.1403 79.9743 43.2747 80.4457C42.3458 79.9867 39.8218 77.5266 39.3719 79.7386Z" fill="#F9B025"/>
<path d="M34.9398 88.1811C34.5866 88.1777 34.2437 88.063 33.9606 87.8535C33.6774 87.644 33.4686 87.3507 33.3643 87.0158C33.26 86.6808 33.2657 86.3217 33.3804 85.9901C33.4951 85.6586 33.713 85.3718 34.0026 85.1712L38.5259 82.0207L38.7717 79.6143C38.8019 79.334 38.9049 79.0662 39.0706 78.8371C39.2364 78.6081 39.4591 78.4257 39.7172 78.3078C40.7043 77.915 41.908 78.7626 42.8702 79.4407C43.066 79.5771 43.2534 79.7094 43.4033 79.8045C45.0069 79.5937 46.2231 80.0278 46.6688 80.9787C46.8729 81.4129 47.1519 82.5457 45.6025 83.9887C45.7566 85.8327 45.4109 86.9573 44.5529 87.4287C43.6949 87.9 42.5911 87.594 41.1375 86.5149L35.3979 88.1026C35.2496 88.1496 35.0954 88.176 34.9398 88.1811ZM39.9921 79.8335L39.7005 82.7277L34.7024 86.2007C34.6172 86.253 34.5555 86.3358 34.5299 86.4319C34.5044 86.5281 34.5169 86.6303 34.5649 86.7175C34.6013 86.8099 34.6726 86.8845 34.7637 86.9255C34.8547 86.9664 34.9583 86.9704 35.0522 86.9366L41.3916 85.167L41.6415 85.3614C42.891 86.3413 43.6449 86.5149 43.9323 86.3578C44.2197 86.2007 44.4904 85.4441 44.3155 83.8192L44.278 83.4926L44.5279 83.2817C45.49 82.4548 45.6608 81.8222 45.5192 81.5162C45.3776 81.2103 44.607 80.8712 43.3617 81.078L43.1617 81.1069L42.9785 81.0159C42.6884 80.8533 42.4101 80.671 42.1454 80.4702C41.6623 80.1312 40.5294 79.3373 40.1753 79.4779C40.1295 79.4738 40.0462 79.573 39.9921 79.8335Z" fill="#0A0A0A"/>
<path d="M25.3807 26.932L25.1183 29.5574L20.3576 32.8651C20.1544 33.0044 20.0078 33.2109 19.9438 33.4476C19.8798 33.6844 19.9026 33.936 20.0082 34.1575C20.1138 34.3791 20.2953 34.5562 20.5203 34.6572C20.7452 34.7583 20.999 34.7766 21.2364 34.7091L27.2675 33.0222C30.0415 35.1929 31.3119 34.3039 30.9495 30.926C33.282 28.9455 32.149 27.1677 29.2834 27.639C28.3546 27.1801 25.8305 24.72 25.3807 26.932Z" fill="#F9B025"/>
<path d="M20.9369 35.3746C20.5826 35.3725 20.2383 35.2582 19.9539 35.0485C19.6695 34.8388 19.4598 34.5446 19.3553 34.2086C19.2509 33.8726 19.257 33.5122 19.3729 33.1799C19.4888 32.8476 19.7084 32.5606 19.9998 32.3605L24.5273 29.2142L24.773 26.8078C24.8028 26.5273 24.9056 26.2594 25.0714 26.0303C25.2372 25.8012 25.4602 25.6189 25.7185 25.5013C26.7056 25.0879 27.9052 25.9561 28.8715 26.6342C29.0672 26.7706 29.2547 26.9029 29.4046 26.998C31.0124 26.7872 32.2244 27.2213 32.6701 28.1722C32.8742 28.5857 33.1532 29.7392 31.6038 31.1822C31.7538 33.0262 31.4122 34.1508 30.5542 34.6222C29.6962 35.0935 28.5924 34.7834 27.1388 33.7084L21.4117 35.3085C21.2574 35.3528 21.0975 35.3751 20.9369 35.3746ZM26.0017 27.0228L25.7101 29.917L20.712 33.3942C20.6325 33.4505 20.5754 33.5327 20.5508 33.6265C20.5261 33.7202 20.5354 33.8196 20.5771 33.9073C20.6188 33.995 20.6901 34.0653 20.7787 34.106C20.8674 34.1468 20.9676 34.1553 21.0619 34.1301L27.4012 32.3605L27.6469 32.5549C28.8965 33.5306 29.6504 33.7126 29.9419 33.5513C30.2335 33.3901 30.5001 32.6334 30.3251 31.0127L30.2876 30.6861L30.5375 30.4752C31.4997 29.6483 31.6705 29.0157 31.5288 28.7097C31.3872 28.4038 30.6167 28.0647 29.3713 28.2715L29.1714 28.3004L28.9881 28.2094C28.6987 28.0443 28.4204 27.8606 28.1551 27.6596C27.6761 27.3205 26.5432 26.5308 26.1891 26.6673C26.1392 26.6673 26.0559 26.7624 26.0017 27.0228Z" fill="#0A0A0A"/>
<path d="M49.7259 55.7543C49.5468 45.4179 34.0734 45.4179 33.8984 55.7543C34.0775 66.0824 49.551 66.0783 49.7259 55.7543Z" fill="#CECDCC"/>
<path d="M41.812 64.1225C37.7676 64.1225 33.3734 61.5094 33.2734 55.7707C33.3692 50.0112 37.7676 47.394 41.812 47.394C45.8563 47.394 50.2505 50.0071 50.3505 55.75V55.7707C50.2505 61.5053 45.8563 64.1225 41.812 64.1225ZM41.812 48.6344C38.3591 48.6344 34.6063 50.8671 34.523 55.7707C34.6063 60.6494 38.3591 62.8821 41.812 62.8821C45.2607 62.8821 49.0135 60.6536 49.1009 55.7583C49.0093 50.8629 45.2607 48.6303 41.812 48.6303V48.6344Z" fill="#0A0A0A"/>
<path d="M105.656 72.6563C105.622 64.5443 93.1976 64.5443 93.1602 72.6563C93.1976 80.7641 105.622 80.7641 105.656 72.6563Z" fill="#CECDCC"/>
<path d="M99.4119 79.3584C96.0089 79.3584 92.5561 77.0554 92.5352 72.6604C92.5144 68.2653 96.009 65.9541 99.4077 65.9541C102.806 65.9541 106.264 68.2529 106.28 72.6521C106.264 77.0554 102.831 79.3584 99.4119 79.3584ZM99.4119 67.1945C96.717 67.1945 93.8056 68.902 93.7889 72.6604C93.7723 76.4187 96.7045 78.118 99.416 78.118C102.128 78.118 105.018 76.4063 105.035 72.6562C105.051 68.9062 102.107 67.1945 99.4077 67.1945H99.4119Z" fill="#0A0A0A"/>
<path d="M49.4012 26.6018C45.0028 24.1831 41.5666 30.7364 41.6207 34.5939C41.6208 36.1509 41.99 37.6859 42.6983 39.075C43.4067 40.4642 44.4344 41.6683 45.6984 42.5902C50.0968 45.0089 53.533 38.4556 53.4789 34.598C53.4788 33.0411 53.1097 31.506 52.4013 30.1169C51.6929 28.7278 50.6652 27.5236 49.4012 26.6018Z" fill="#CECDCC"/>
<path d="M47.5976 43.7353C46.8232 43.7245 46.0646 43.5166 45.3942 43.1317L45.3276 43.0903C43.9874 42.1082 42.8975 40.8282 42.1452 39.3527C41.393 37.8773 40.9994 36.2474 40.9959 34.5938C40.9542 31.7492 42.6619 27.6519 45.261 26.1056C45.9251 25.691 46.692 25.4672 47.4766 25.4592C48.2611 25.4512 49.0325 25.6592 49.7052 26.0601L49.7718 26.1014C51.1113 27.084 52.2004 28.3642 52.9518 29.8396C53.7033 31.3151 54.0963 32.9447 54.0994 34.5979C54.141 37.4425 52.4333 41.5399 49.8343 43.0862C49.1624 43.5011 48.3889 43.7256 47.5976 43.7353ZM46.0357 42.0815C46.5147 42.3662 47.064 42.5131 47.6222 42.5058C48.1805 42.4985 48.7257 42.3373 49.197 42.0401C51.3962 40.7336 52.8873 37.0787 52.854 34.6227C52.8517 33.1693 52.508 31.7365 51.85 30.4381C51.192 29.1397 50.238 28.0115 49.0637 27.1433C48.5847 26.8586 48.0354 26.7118 47.4771 26.7191C46.9189 26.7264 46.3737 26.8876 45.9024 27.1847C43.7032 28.4912 42.2121 32.1461 42.2454 34.6021C42.2502 36.0527 42.5953 37.4823 43.2531 38.7776C43.911 40.0729 44.8637 41.1984 46.0357 42.065V42.0815Z" fill="#1D1D1B"/>
<path d="M132.085 147.367C130.395 146.167 128.386 145.495 126.314 145.436C124.241 145.378 122.198 145.935 120.442 147.038C118.687 148.141 117.297 149.739 116.45 151.631C115.603 153.524 115.336 155.625 115.683 157.669C116.03 159.713 116.975 161.608 118.399 163.115C119.823 164.622 121.662 165.672 123.684 166.134C125.705 166.595 127.818 166.447 129.755 165.708C131.692 164.969 133.366 163.672 134.566 161.981C136.175 159.714 136.817 156.901 136.352 154.16C135.887 151.42 134.352 148.976 132.085 147.367Z" fill="#F9B025"/>
<path fill-rule="evenodd" clip-rule="evenodd" d="M120.17 146.604C122.012 145.448 124.155 144.863 126.328 144.925C128.502 144.986 130.608 145.691 132.382 146.95C134.759 148.637 136.369 151.2 136.857 154.075C137.345 156.949 136.671 159.9 134.983 162.278C133.725 164.051 131.969 165.411 129.937 166.187C127.906 166.962 125.69 167.117 123.57 166.633C121.45 166.149 119.521 165.047 118.027 163.466C116.534 161.886 115.542 159.898 115.178 157.755C114.815 155.611 115.095 153.407 115.983 151.422C116.872 149.438 118.329 147.761 120.17 146.604ZM126.299 145.948C124.328 145.892 122.385 146.422 120.715 147.471C119.045 148.52 117.723 150.041 116.917 151.841C116.112 153.641 115.858 155.639 116.188 157.583C116.518 159.527 117.417 161.33 118.771 162.763C120.126 164.197 121.875 165.196 123.798 165.635C125.72 166.074 127.73 165.933 129.572 165.23C131.415 164.527 133.007 163.293 134.149 161.685C135.679 159.529 136.29 156.853 135.848 154.246C135.405 151.639 133.945 149.315 131.789 147.784C130.181 146.643 128.271 146.004 126.299 145.948Z" fill="#292929"/>
<path fill-rule="evenodd" clip-rule="evenodd" d="M124.306 154.423C125.368 154.93 126.302 155.67 127.041 156.586C127.78 157.503 128.304 158.573 128.574 159.719C128.845 160.864 128.856 162.056 128.605 163.206C128.355 164.357 127.85 165.436 127.128 166.365C125.668 166.501 124.196 166.332 122.805 165.87C121.414 165.408 120.134 164.662 119.046 163.679C117.958 162.697 117.085 161.5 116.484 160.163C115.882 158.827 115.564 157.38 115.55 155.914C116.675 154.789 118.122 154.041 119.69 153.774C121.259 153.506 122.872 153.733 124.306 154.423Z" fill="#BA7C11"/>
<path fill-rule="evenodd" clip-rule="evenodd" d="M124.084 154.885C122.746 154.242 121.24 154.03 119.776 154.279C118.383 154.516 117.093 155.16 116.066 156.127C116.107 157.448 116.407 158.748 116.95 159.954C117.523 161.226 118.353 162.366 119.389 163.301C120.425 164.235 121.643 164.945 122.967 165.385C124.22 165.802 125.542 165.968 126.857 165.875C127.462 165.047 127.887 164.102 128.105 163.099C128.339 162.023 128.33 160.909 128.076 159.838C127.823 158.766 127.333 157.766 126.643 156.909C125.952 156.052 125.078 155.36 124.085 154.885L124.084 154.885ZM124.527 153.962C122.998 153.227 121.277 152.985 119.604 153.27C117.931 153.555 116.388 154.353 115.188 155.553L115.036 155.705L115.038 155.92C115.053 157.456 115.386 158.973 116.017 160.374C116.648 161.776 117.562 163.031 118.703 164.06C119.844 165.09 121.186 165.872 122.644 166.357C124.102 166.841 125.645 167.018 127.175 166.876L127.396 166.856L127.532 166.681C128.301 165.691 128.839 164.541 129.106 163.316C129.372 162.091 129.361 160.822 129.073 159.602C128.784 158.382 128.226 157.242 127.44 156.266C126.653 155.29 125.658 154.503 124.527 153.962Z" fill="#292929"/>
<path fill-rule="evenodd" clip-rule="evenodd" d="M132.833 147.957C131.445 146.784 129.778 145.987 127.994 145.643V145.66C127.843 145.977 127.756 146.321 127.739 146.672C127.721 147.023 127.773 147.374 127.892 147.705C128.01 148.036 128.193 148.34 128.43 148.6C128.666 148.86 128.952 149.07 129.27 149.219C129.911 149.519 130.644 149.554 131.31 149.318C131.977 149.082 132.524 148.593 132.833 147.957Z" fill="#BA7C11"/>
<path fill-rule="evenodd" clip-rule="evenodd" d="M127.482 145.023L128.091 145.141C129.962 145.501 131.708 146.336 133.163 147.566L133.467 147.823L133.293 148.18C132.925 148.938 132.275 149.52 131.481 149.801C130.688 150.082 129.816 150.04 129.054 149.683L129.053 149.683C128.674 149.505 128.333 149.254 128.051 148.945C127.769 148.635 127.551 148.273 127.41 147.878C127.269 147.484 127.207 147.066 127.228 146.647C127.247 146.269 127.333 145.897 127.482 145.55V145.023ZM128.324 146.238C128.283 146.388 128.258 146.542 128.25 146.698C128.236 146.982 128.278 147.265 128.374 147.533C128.47 147.8 128.617 148.046 128.808 148.256C128.999 148.465 129.23 148.635 129.487 148.756M128.324 146.238C129.72 146.57 131.03 147.197 132.166 148.075C131.909 148.423 131.553 148.689 131.139 148.836C130.6 149.027 130.006 148.998 129.487 148.756" fill="#292929"/>
<path d="M134.938 151.966C135.038 151.754 135.073 151.516 135.039 151.284C135.004 151.052 134.902 150.835 134.744 150.661C134.586 150.487 134.38 150.363 134.152 150.306C133.924 150.249 133.685 150.261 133.463 150.341C133.242 150.42 133.05 150.563 132.91 150.752C132.77 150.941 132.689 151.167 132.678 151.401C132.667 151.636 132.725 151.869 132.846 152.07C132.967 152.271 133.145 152.432 133.358 152.533C133.643 152.666 133.969 152.681 134.265 152.575C134.56 152.469 134.802 152.25 134.938 151.966Z" fill="#BA7C11"/>
<path fill-rule="evenodd" clip-rule="evenodd" d="M133.291 149.858C133.607 149.745 133.95 149.728 134.276 149.81C134.603 149.891 134.897 150.067 135.123 150.316C135.349 150.565 135.496 150.876 135.545 151.208C135.595 151.541 135.544 151.881 135.401 152.185L134.938 151.966L135.4 152.186C135.207 152.592 134.861 152.905 134.437 153.056C134.014 153.208 133.548 153.186 133.141 152.996L133.14 152.995C132.836 152.852 132.581 152.621 132.408 152.333C132.235 152.045 132.151 151.712 132.167 151.376C132.183 151.041 132.299 150.717 132.499 150.447C132.699 150.177 132.974 149.972 133.291 149.858ZM134.475 151.746C134.532 151.626 134.552 151.491 134.533 151.359C134.513 151.227 134.455 151.103 134.365 151.004C134.275 150.905 134.158 150.835 134.028 150.803C133.899 150.77 133.762 150.777 133.636 150.822C133.51 150.867 133.401 150.949 133.321 151.056C133.242 151.163 133.196 151.292 133.189 151.426C133.183 151.559 133.216 151.691 133.285 151.806C133.354 151.92 133.455 152.012 133.576 152.069C133.738 152.145 133.923 152.153 134.092 152.093C134.26 152.032 134.398 151.908 134.475 151.746Z" fill="#292929"/>
<path d="M52.8355 144.845V167.178H47.3964V153.785L42.3872 167.178H38.0093L32.983 153.751V167.178H27.5234V144.845H33.9521L40.2375 160.316L46.4409 144.855L52.8355 144.845Z" fill="white"/>
<path d="M61.1542 144.845V158.207C61.1542 159.541 61.4954 160.572 62.1404 161.278C62.7853 161.984 63.7646 162.36 65.0374 162.36C66.3101 162.36 67.286 162.019 67.9651 161.278C68.6441 160.538 68.9887 159.528 68.9887 158.207V144.845H74.4483V158.176C74.5045 159.948 74.0636 161.7 73.1756 163.233C72.3421 164.592 71.1284 165.676 69.6848 166.352C68.1941 167.039 66.573 167.398 64.9315 167.403C63.29 167.408 61.6666 167.06 60.1715 166.383C58.7959 165.688 57.6554 164.603 56.8923 163.264C56.051 161.704 55.6378 159.948 55.6946 158.176V144.845H61.1542Z" fill="white"/>
<path d="M97.2521 167.178H91.813L82.7125 153.403V167.178H77.2529V144.845H82.7125L91.813 158.685V144.845H97.2521V167.178Z" fill="white"/>
<path d="M108.608 144.845C110.75 144.794 112.87 145.275 114.781 146.244C116.495 147.132 117.912 148.503 118.855 150.189C119.816 151.979 120.319 153.979 120.319 156.012C120.319 158.044 119.816 160.044 118.855 161.835C117.909 163.524 116.484 164.896 114.76 165.779C112.86 166.746 110.75 167.226 108.618 167.178H100.241V144.845H108.608ZM108.267 162.469C110.314 162.469 111.916 161.907 113.071 160.784C114.227 159.66 114.796 158.067 114.777 156.006C114.777 153.959 114.209 152.359 113.071 151.205C111.934 150.052 110.332 149.483 108.267 149.499H105.684V162.466L108.267 162.469Z" fill="white"/>
<path d="M35.9035 170.335C38.0453 170.285 40.1661 170.767 42.0762 171.737C43.7856 172.624 45.1983 173.992 46.1402 175.671C47.1414 177.445 47.6471 179.456 47.6041 181.493C47.6437 183.533 47.1384 185.547 46.1402 187.328C45.1928 189.016 43.7685 190.388 42.0455 191.272C40.1446 192.237 38.0348 192.718 35.9035 192.671H27.54V170.335H35.9035ZM35.5622 187.955C37.6096 187.955 39.2111 187.394 40.3667 186.27C41.5223 185.146 42.091 183.554 42.0728 181.493C42.0728 179.445 41.5041 177.844 40.3667 176.688C39.2293 175.533 37.6278 174.966 35.5622 174.989H32.986V187.955H35.5622Z" fill="white"/>
<path d="M63.608 188.726H55.2719L53.9343 192.671H48.2393L56.3229 170.334H62.6219L70.7089 192.671H64.9422L63.608 188.726ZM62.209 184.543L59.4485 176.354L56.7187 184.543H62.209Z" fill="white"/>
<path d="M83.4367 188.471H90.5649V192.671H77.9941V170.334H83.4537L83.4367 188.471Z" fill="white"/>
<path d="M97.5494 170.334V183.7C97.5494 185.034 97.8906 186.065 98.5355 186.771C99.1804 187.478 100.156 187.853 101.429 187.853C102.702 187.853 103.678 187.491 104.357 186.771C105.036 186.051 105.38 185.021 105.38 183.7V170.334H110.82V183.666C110.82 185.661 110.395 187.348 109.547 188.726C108.729 190.078 107.535 191.162 106.111 191.845C104.619 192.53 102.998 192.888 101.357 192.893C99.7162 192.898 98.093 192.551 96.5973 191.876C95.223 191.18 94.0838 190.096 93.3216 188.757C92.4736 187.198 92.0555 185.441 92.1102 183.666V170.334H97.5494Z" fill="white"/>
<path d="M127.588 188.726H119.251L117.914 192.671H112.219L120.299 170.334H126.601L134.682 192.671H128.922L127.588 188.726ZM126.185 184.543L123.418 176.354L120.688 184.543H126.185Z" fill="white"/>
</svg>
